<svg width="200" height="173" viewBox="0 0 200 173" fill="none" xmlns="http://www.w3.org/2000/svg">
<rect width="200" height="146" fill="#D2954D"/>
<mask id="path-2-inside-1_1004_1141" fill="white">
<path d="M0 146H200V173H0V146Z"/>
</mask>
<path d="M0 146H200V173H0V146Z" fill="white"/>
<path d="M200 173V174H201V173H200ZM0 173H-1V174H0V173ZM199 146V173H201V146H199ZM200 172H0V174H200V172ZM1 173V146H-1V173H1Z" fill="#D2954D" mask="url(#path-2-inside-1_1004_1141)"/>
<path d="M23.7802 164L20.2242 159.646V164H18.2642V154.228H20.2242V158.61L23.7802 154.228H26.1462L22.1142 159.072L26.2582 164H23.7802ZM33.8054 154.228V161.088C33.8054 162.04 33.53 162.782 32.9794 163.314C32.4287 163.837 31.6914 164.098 30.7674 164.098C29.834 164.098 29.078 163.827 28.4994 163.286C27.93 162.745 27.6454 161.989 27.6454 161.018H29.6054C29.6147 161.438 29.7127 161.765 29.8994 161.998C30.0954 162.231 30.3754 162.348 30.7394 162.348C31.094 162.348 31.3647 162.236 31.5514 162.012C31.738 161.788 31.8314 161.48 31.8314 161.088V154.228H33.8054ZM42.6437 162.138H38.7517L38.1077 164H36.0497L39.5637 154.214H41.8457L45.3597 164H43.2877L42.6437 162.138ZM42.1117 160.57L40.6977 156.482L39.2837 160.57H42.1117ZM56.6732 158.988C57.2238 159.091 57.6765 159.366 58.0312 159.814C58.3858 160.262 58.5632 160.775 58.5632 161.354C58.5632 161.877 58.4325 162.339 58.1712 162.74C57.9192 163.132 57.5505 163.44 57.0652 163.664C56.5798 163.888 56.0058 164 55.3432 164H51.1292V154.228H55.1612C55.8238 154.228 56.3932 154.335 56.8692 154.55C57.3545 154.765 57.7185 155.063 57.9612 155.446C58.2132 155.829 58.3392 156.263 58.3392 156.748C58.3392 157.317 58.1852 157.793 57.8772 158.176C57.5785 158.559 57.1772 158.829 56.6732 158.988ZM53.0892 158.26H54.8812C55.3478 158.26 55.7072 158.157 55.9592 157.952C56.2112 157.737 56.3372 157.434 56.3372 157.042C56.3372 156.65 56.2112 156.347 55.9592 156.132C55.7072 155.917 55.3478 155.81 54.8812 155.81H53.0892V158.26ZM55.0632 162.404C55.5392 162.404 55.9078 162.292 56.1692 162.068C56.4398 161.844 56.5752 161.527 56.5752 161.116C56.5752 160.696 56.4352 160.369 56.1552 160.136C55.8752 159.893 55.4972 159.772 55.0212 159.772H53.0892V162.404H55.0632ZM66.6773 162.138H62.7853L62.1413 164H60.0833L63.5973 154.214H65.8793L69.3933 164H67.3213L66.6773 162.138ZM66.1453 160.57L64.7313 156.482L63.3173 160.57H66.1453ZM74.6407 164.098C73.9594 164.098 73.3434 163.981 72.7927 163.748C72.2514 163.515 71.8221 163.179 71.5047 162.74C71.1874 162.301 71.0241 161.783 71.0147 161.186H73.1147C73.1427 161.587 73.2827 161.905 73.5347 162.138C73.7961 162.371 74.1507 162.488 74.5987 162.488C75.0561 162.488 75.4154 162.381 75.6767 162.166C75.9381 161.942 76.0687 161.653 76.0687 161.298C76.0687 161.009 75.9801 160.771 75.8027 160.584C75.6254 160.397 75.4014 160.253 75.1307 160.15C74.8694 160.038 74.5054 159.917 74.0387 159.786C73.4041 159.599 72.8861 159.417 72.4847 159.24C72.0927 159.053 71.7521 158.778 71.4627 158.414C71.1827 158.041 71.0427 157.546 71.0427 156.93C71.0427 156.351 71.1874 155.847 71.4767 155.418C71.7661 154.989 72.1721 154.662 72.6947 154.438C73.2174 154.205 73.8147 154.088 74.4867 154.088C75.4947 154.088 76.3114 154.335 76.9367 154.83C77.5714 155.315 77.9214 155.997 77.9867 156.874H75.8307C75.8121 156.538 75.6674 156.263 75.3967 156.048C75.1354 155.824 74.7854 155.712 74.3467 155.712C73.9641 155.712 73.6561 155.81 73.4227 156.006C73.1987 156.202 73.0867 156.487 73.0867 156.86C73.0867 157.121 73.1707 157.341 73.3387 157.518C73.5161 157.686 73.7307 157.826 73.9827 157.938C74.2441 158.041 74.6081 158.162 75.0747 158.302C75.7094 158.489 76.2274 158.675 76.6287 158.862C77.0301 159.049 77.3754 159.329 77.6647 159.702C77.9541 160.075 78.0987 160.565 78.0987 161.172C78.0987 161.695 77.9634 162.18 77.6927 162.628C77.4221 163.076 77.0254 163.435 76.5027 163.706C75.9801 163.967 75.3594 164.098 74.6407 164.098ZM86.35 162.138H82.458L81.814 164H79.756L83.27 154.214H85.552L89.066 164H86.994L86.35 162.138ZM85.818 160.57L84.404 156.482L82.99 160.57H85.818ZM92.8715 154.228V160.276C92.8715 160.939 93.0441 161.447 93.3895 161.802C93.7348 162.147 94.2201 162.32 94.8455 162.32C95.4801 162.32 95.9701 162.147 96.3155 161.802C96.6608 161.447 96.8335 160.939 96.8335 160.276V154.228H98.8075V160.262C98.8075 161.093 98.6255 161.797 98.2615 162.376C97.9068 162.945 97.4261 163.375 96.8195 163.664C96.2221 163.953 95.5548 164.098 94.8175 164.098C94.0895 164.098 93.4268 163.953 92.8295 163.664C92.2415 163.375 91.7748 162.945 91.4295 162.376C91.0841 161.797 90.9115 161.093 90.9115 160.262V154.228H92.8715ZM103.221 162.446H106.441V164H101.261V154.228H103.221V162.446ZM110.207 154.228V164H108.247V154.228H110.207ZM119.973 164.098C119.292 164.098 118.676 163.981 118.125 163.748C117.584 163.515 117.155 163.179 116.837 162.74C116.52 162.301 116.357 161.783 116.347 161.186H118.447C118.475 161.587 118.615 161.905 118.867 162.138C119.129 162.371 119.483 162.488 119.931 162.488C120.389 162.488 120.748 162.381 121.009 162.166C121.271 161.942 121.401 161.653 121.401 161.298C121.401 161.009 121.313 160.771 121.135 160.584C120.958 160.397 120.734 160.253 120.463 160.15C120.202 160.038 119.838 159.917 119.371 159.786C118.737 159.599 118.219 159.417 117.817 159.24C117.425 159.053 117.085 158.778 116.795 158.414C116.515 158.041 116.375 157.546 116.375 156.93C116.375 156.351 116.52 155.847 116.809 155.418C117.099 154.989 117.505 154.662 118.027 154.438C118.55 154.205 119.147 154.088 119.819 154.088C120.827 154.088 121.644 154.335 122.269 154.83C122.904 155.315 123.254 155.997 123.319 156.874H121.163C121.145 156.538 121 156.263 120.729 156.048C120.468 155.824 120.118 155.712 119.679 155.712C119.297 155.712 118.989 155.81 118.755 156.006C118.531 156.202 118.419 156.487 118.419 156.86C118.419 157.121 118.503 157.341 118.671 157.518C118.849 157.686 119.063 157.826 119.315 157.938C119.577 158.041 119.941 158.162 120.407 158.302C121.042 158.489 121.56 158.675 121.961 158.862C122.363 159.049 122.708 159.329 122.997 159.702C123.287 160.075 123.431 160.565 123.431 161.172C123.431 161.695 123.296 162.18 123.025 162.628C122.755 163.076 122.358 163.435 121.835 163.706C121.313 163.967 120.692 164.098 119.973 164.098ZM127.651 154.228V164H125.691V154.228H127.651ZM136.139 162.138H132.247L131.603 164H129.545L133.059 154.214H135.341L138.855 164H136.783L136.139 162.138ZM135.607 160.57L134.193 156.482L132.779 160.57H135.607ZM149.087 164H147.127L142.689 157.294V164H140.729V154.214H142.689L147.127 160.934V154.214H149.087V164ZM153.544 154.228V164H151.584V154.228H153.544ZM163.166 157.252C163.166 157.775 163.04 158.265 162.788 158.722C162.545 159.179 162.158 159.548 161.626 159.828C161.103 160.108 160.441 160.248 159.638 160.248H158V164H156.04V154.228H159.638C160.394 154.228 161.038 154.359 161.57 154.62C162.102 154.881 162.499 155.241 162.76 155.698C163.031 156.155 163.166 156.673 163.166 157.252ZM159.554 158.666C160.095 158.666 160.497 158.545 160.758 158.302C161.019 158.05 161.15 157.7 161.15 157.252C161.15 156.3 160.618 155.824 159.554 155.824H158V158.666H159.554ZM171.11 162.138H167.218L166.574 164H164.516L168.03 154.214H170.312L173.826 164H171.754L171.11 162.138ZM170.578 160.57L169.164 156.482L167.75 160.57H170.578ZM180.739 164L178.583 160.192H177.659V164H175.699V154.228H179.367C180.123 154.228 180.767 154.363 181.299 154.634C181.831 154.895 182.228 155.255 182.489 155.712C182.76 156.16 182.895 156.664 182.895 157.224C182.895 157.868 182.708 158.451 182.335 158.974C181.962 159.487 181.406 159.842 180.669 160.038L183.007 164H180.739ZM177.659 158.722H179.297C179.829 158.722 180.226 158.596 180.487 158.344C180.748 158.083 180.879 157.723 180.879 157.266C180.879 156.818 180.748 156.473 180.487 156.23C180.226 155.978 179.829 155.852 179.297 155.852H177.659V158.722Z" fill="#3A3A3A"/>
<path d="M90.765 60.1875C90.4733 60.5625 90.1608 60.9167 89.8275 61.25C96.9525 66.8333 100.515 74.125 100.515 83.125C100.515 90.8333 97.7858 97.3958 92.3275 102.812C86.9108 108.271 80.3692 111 72.7025 111H38.9525C37.2025 111 35.7233 110.375 34.515 109.125C33.265 107.875 32.64 106.396 32.64 104.688V43.625C32.6817 37.125 34.7442 31.5833 38.8275 27C43.3275 21.9583 49.3067 19.4375 56.765 19.4375H72.7025C80.1608 19.4375 86.1608 21.9792 90.7025 27.0625C94.7858 31.6458 96.8275 37.1875 96.8275 43.6875C96.8275 50.1458 94.8067 55.6458 90.765 60.1875ZM45.265 43.6875V55.3125H72.7025C76.3692 55.3125 79.2233 54.1458 81.265 51.8125C83.1817 49.6458 84.14 46.9375 84.14 43.6875C84.14 40.6042 83.2858 38 81.5775 35.875C79.5358 33.3333 76.5775 32.0625 72.7025 32.0625H56.765C52.89 32.0625 49.9317 33.3333 47.89 35.875C46.1817 37.9583 45.3067 40.5625 45.265 43.6875ZM45.265 98.3125H72.7025C76.8692 98.3125 80.4317 96.8333 83.39 93.875C86.39 90.9167 87.89 87.3333 87.89 83.125C87.89 78.9583 86.39 75.3958 83.39 72.4375C80.4317 69.4375 76.8692 67.9375 72.7025 67.9375H45.265V98.3125Z" fill="#D93E1C"/>
<path d="M115.048 111C113.298 111 111.798 110.375 110.548 109.125C109.298 107.917 108.673 106.438 108.673 104.688C108.673 102.938 109.298 101.438 110.548 100.188C111.798 98.9792 113.298 98.375 115.048 98.375H142.735C147.652 98.375 151.464 97.1875 154.173 94.8125C156.923 92.4375 158.36 89.0833 158.485 84.75C158.61 79.0833 157.277 75.3333 154.485 73.5C152.193 72 147.131 70.9792 139.298 70.4375C130.089 69.8125 123.443 68.375 119.36 66.125C112.193 62.1667 108.631 55.0208 108.673 44.6875C108.756 38.0625 110.86 32.3125 114.985 27.4375C119.485 22.1042 125.214 19.4375 132.173 19.4375H159.11C160.86 19.4375 162.36 20.0625 163.61 21.3125C164.818 22.5208 165.423 24 165.423 25.75C165.423 27.5 164.818 29 163.61 30.25C162.36 31.4583 160.86 32.0625 159.11 32.0625H132.173C128.631 32.0625 125.86 33.5833 123.86 36.625C122.193 39.0417 121.36 41.7708 121.36 44.8125C121.318 49.9375 122.652 53.3333 125.36 55C127.61 56.3333 132.548 57.2708 140.173 57.8125C149.589 58.4792 156.381 60 160.548 62.375C167.839 66.5417 171.36 74.1042 171.11 85.0625C170.943 92.8125 168.256 99.0833 163.048 103.875C157.839 108.625 151.068 111 142.735 111H115.048Z" fill="white"/>
<path d="M54.2395 119.896C54.3716 119.759 54.5334 119.691 54.7248 119.691C54.9162 119.691 55.0803 119.759 55.217 119.896C55.3537 120.028 55.4221 120.19 55.4221 120.381V125.618C55.4221 126.743 55.0484 127.707 54.301 128.509C53.5581 129.307 52.6626 129.706 51.6145 129.706C50.5526 129.706 49.6503 129.3 48.9074 128.489C48.1783 127.691 47.8137 126.734 47.8137 125.618V120.381C47.8137 120.19 47.882 120.028 48.0187 119.896C48.1509 119.759 48.3127 119.691 48.5041 119.691C48.6955 119.691 48.8596 119.759 48.9963 119.896C49.1284 120.028 49.1945 120.19 49.1945 120.381V125.618C49.1945 126.374 49.4383 127.019 49.926 127.552C50.3954 128.063 50.9582 128.318 51.6145 128.318C52.2844 128.318 52.854 128.054 53.3234 127.525C53.7974 127.001 54.0344 126.365 54.0344 125.618V120.381C54.0344 120.19 54.1027 120.028 54.2395 119.896ZM57.7225 123.499C58.4334 122.792 59.2902 122.439 60.2928 122.439C61.2909 122.439 62.1454 122.792 62.8563 123.499C63.5672 124.21 63.9227 125.066 63.9227 126.069C63.9227 127.072 63.5672 127.928 62.8563 128.639C62.1454 129.35 61.2909 129.706 60.2928 129.706C59.7323 129.706 59.2036 129.585 58.7069 129.343C58.5337 129.257 58.4152 129.125 58.3514 128.947C58.2922 128.765 58.3036 128.587 58.3856 128.414C58.4676 128.245 58.5998 128.129 58.7821 128.065C58.9598 128.001 59.1353 128.01 59.3084 128.092C59.6183 128.243 59.9465 128.318 60.2928 128.318C60.9126 128.318 61.4412 128.099 61.8787 127.662C62.3208 127.22 62.5418 126.689 62.5418 126.069C62.5418 125.449 62.3208 124.921 61.8787 124.483C61.4412 124.041 60.9126 123.82 60.2928 123.82C59.6685 123.82 59.1375 124.041 58.7 124.483C58.258 124.921 58.037 125.449 58.037 126.069V131.756C58.037 131.948 57.9709 132.112 57.8387 132.249C57.702 132.381 57.5379 132.447 57.3465 132.447C57.1551 132.447 56.9933 132.381 56.8612 132.249C56.7245 132.112 56.6561 131.948 56.6561 131.756V126.069C56.6561 125.066 57.0116 124.21 57.7225 123.499ZM66.2641 123.143C66.8611 122.674 67.5311 122.439 68.2739 122.439C69.2081 122.439 70.0057 122.792 70.6665 123.499C71.3318 124.21 71.6645 125.066 71.6645 126.069V129.008C71.6645 129.2 71.5962 129.364 71.4595 129.501C71.3273 129.637 71.1655 129.706 70.9741 129.706C70.7827 129.706 70.6186 129.637 70.4819 129.501C70.3452 129.364 70.2768 129.2 70.2768 129.008V126.069C70.2768 125.449 70.0809 124.921 69.6889 124.483C69.297 124.041 68.8253 123.82 68.2739 123.82C67.7225 123.82 67.2508 124.039 66.8589 124.476C66.4624 124.918 66.2641 125.449 66.2641 126.069V129.008C66.2641 129.2 66.1981 129.364 66.0659 129.501C65.9292 129.637 65.7651 129.706 65.5737 129.706C65.3823 129.706 65.2205 129.637 65.0884 129.501C64.9516 129.364 64.8833 129.2 64.8833 129.008V120.381C64.8833 120.19 64.9516 120.028 65.0884 119.896C65.2205 119.759 65.3823 119.691 65.5737 119.691C65.7651 119.691 65.9292 119.759 66.0659 119.896C66.1981 120.028 66.2641 120.19 66.2641 120.381V123.143ZM73.4796 123.499C74.1905 122.792 75.0473 122.439 76.0499 122.439C77.048 122.439 77.9025 122.792 78.6134 123.499C79.3243 124.21 79.6798 125.066 79.6798 126.069C79.6798 127.072 79.3243 127.928 78.6134 128.639C77.9025 129.35 77.048 129.706 76.0499 129.706C75.0473 129.706 74.1905 129.35 73.4796 128.639C72.7687 127.928 72.4132 127.072 72.4132 126.069C72.4132 125.066 72.7687 124.21 73.4796 123.499ZM74.4571 127.662C74.8946 128.099 75.4256 128.318 76.0499 128.318C76.6697 128.318 77.1984 128.099 77.6359 127.662C78.0779 127.22 78.2989 126.689 78.2989 126.069C78.2989 125.449 78.0779 124.921 77.6359 124.483C77.1984 124.041 76.6697 123.82 76.0499 123.82C75.4256 123.82 74.8946 124.041 74.4571 124.483C74.0151 124.921 73.7941 125.449 73.7941 126.069C73.7941 126.689 74.0151 127.22 74.4571 127.662ZM81.0505 119.896C81.1827 119.759 81.3445 119.691 81.5359 119.691C81.7273 119.691 81.8914 119.759 82.0281 119.896C82.1602 120.028 82.2263 120.19 82.2263 120.381V129.008C82.2263 129.2 82.1602 129.364 82.0281 129.501C81.8914 129.637 81.7273 129.706 81.5359 129.706C81.3445 129.706 81.1827 129.637 81.0505 129.501C80.9138 129.364 80.8455 129.2 80.8455 129.008V120.381C80.8455 120.19 80.9138 120.028 81.0505 119.896ZM89.4008 119.896C89.5375 119.759 89.7016 119.691 89.893 119.691C90.0844 119.691 90.2462 119.759 90.3783 119.896C90.515 120.028 90.5834 120.19 90.5834 120.381V126.069C90.5834 127.072 90.2279 127.928 89.517 128.639C88.8061 129.35 87.9516 129.706 86.9535 129.706C85.9509 129.706 85.0941 129.35 84.3832 128.639C83.6723 127.928 83.3168 127.072 83.3168 126.069C83.3168 125.066 83.6723 124.21 84.3832 123.499C85.0941 122.792 85.9509 122.439 86.9535 122.439C87.4867 122.439 87.9949 122.551 88.4779 122.774C88.6511 122.856 88.7719 122.986 88.8402 123.164C88.904 123.341 88.8949 123.517 88.8129 123.69C88.7354 123.863 88.6055 123.984 88.4232 124.052C88.2455 124.116 88.0701 124.107 87.8969 124.025C87.5961 123.888 87.2816 123.82 86.9535 123.82C86.3292 123.82 85.7982 124.041 85.3607 124.483C84.9187 124.921 84.6977 125.449 84.6977 126.069C84.6977 126.689 84.9187 127.22 85.3607 127.662C85.7982 128.099 86.3292 128.318 86.9535 128.318C87.5733 128.318 88.102 128.099 88.5395 127.662C88.9815 127.22 89.2025 126.689 89.2025 126.069V120.381C89.2025 120.19 89.2686 120.028 89.4008 119.896ZM95.5192 119.896C95.6514 119.759 95.8132 119.691 96.0046 119.691C96.196 119.691 96.36 119.759 96.4968 119.896C96.6289 120.028 96.695 120.19 96.695 120.381V129.008C96.695 129.2 96.6289 129.364 96.4968 129.501C96.36 129.637 96.196 129.706 96.0046 129.706C95.8132 129.706 95.6514 129.637 95.5192 129.501C95.3825 129.364 95.3141 129.2 95.3141 129.008V120.381C95.3141 120.19 95.3825 120.028 95.5192 119.896ZM99.5081 123.143C100.105 122.674 100.775 122.439 101.518 122.439C102.452 122.439 103.25 122.792 103.91 123.499C104.576 124.21 104.909 125.066 104.909 126.069V129.008C104.909 129.2 104.84 129.364 104.703 129.501C104.571 129.637 104.409 129.706 104.218 129.706C104.027 129.706 103.863 129.637 103.726 129.501C103.589 129.364 103.521 129.2 103.521 129.008V126.069C103.521 125.449 103.325 124.921 102.933 124.483C102.541 124.041 102.069 123.82 101.518 123.82C100.966 123.82 100.495 124.039 100.103 124.476C99.7064 124.918 99.5081 125.449 99.5081 126.069V129.008C99.5081 129.2 99.442 129.364 99.3099 129.501C99.1732 129.637 99.0091 129.706 98.8177 129.706C98.6263 129.706 98.4645 129.637 98.3323 129.501C98.1956 129.364 98.1273 129.2 98.1273 129.008V123.13C98.1273 122.938 98.1956 122.774 98.3323 122.637C98.4645 122.505 98.6263 122.439 98.8177 122.439C99.0091 122.439 99.1732 122.505 99.3099 122.637C99.442 122.774 99.5081 122.938 99.5081 123.13V123.143ZM109.978 123.82H107.722V126.069C107.722 126.689 107.943 127.22 108.385 127.662C108.822 128.099 109.353 128.318 109.978 128.318C110.164 128.318 110.326 128.386 110.463 128.523C110.6 128.66 110.668 128.822 110.668 129.008C110.668 129.2 110.6 129.364 110.463 129.501C110.326 129.637 110.164 129.706 109.978 129.706C108.975 129.706 108.118 129.35 107.407 128.639C106.696 127.928 106.341 127.072 106.341 126.069V120.183C106.341 119.996 106.409 119.835 106.546 119.698C106.678 119.561 106.84 119.493 107.031 119.493C107.223 119.493 107.387 119.561 107.523 119.698C107.656 119.835 107.722 119.996 107.722 120.183V122.439H109.978C110.164 122.439 110.326 122.505 110.463 122.637C110.6 122.774 110.668 122.938 110.668 123.13C110.668 123.321 110.6 123.483 110.463 123.615C110.326 123.752 110.164 123.82 109.978 123.82ZM117.972 124.763C117.972 124.768 117.972 124.77 117.972 124.77V124.777C118.045 124.95 118.043 125.126 117.965 125.303C117.893 125.481 117.767 125.604 117.589 125.672L113.72 127.224C113.638 127.256 113.554 127.272 113.467 127.272C113.153 127.272 112.939 127.126 112.825 126.835C112.752 126.661 112.754 126.486 112.832 126.308C112.905 126.13 113.03 126.007 113.208 125.939L116.345 124.681C115.89 124.107 115.302 123.82 114.582 123.82C113.957 123.82 113.426 124.041 112.989 124.483C112.547 124.921 112.326 125.449 112.326 126.069C112.326 126.689 112.547 127.22 112.989 127.662C113.426 128.099 113.957 128.318 114.582 128.318C115.311 128.318 115.901 128.029 116.352 127.45C116.471 127.299 116.626 127.213 116.817 127.19C117.004 127.167 117.172 127.215 117.323 127.334C117.473 127.448 117.562 127.6 117.589 127.792C117.612 127.983 117.564 128.154 117.446 128.304C116.717 129.239 115.762 129.706 114.582 129.706C113.579 129.706 112.722 129.35 112.011 128.639C111.3 127.928 110.945 127.072 110.945 126.069C110.945 125.066 111.3 124.21 112.011 123.499C112.722 122.792 113.579 122.439 114.582 122.439C115.324 122.439 116.008 122.651 116.632 123.075C117.257 123.503 117.703 124.066 117.972 124.763ZM119.692 123.492C120.403 122.785 121.259 122.432 122.262 122.432C123.26 122.432 124.114 122.785 124.825 123.492C125.536 124.203 125.892 125.06 125.892 126.062V129.002C125.892 130.004 125.536 130.861 124.825 131.572C124.114 132.283 123.26 132.638 122.262 132.638C121.268 132.638 120.416 132.29 119.705 131.592C119.569 131.46 119.5 131.298 119.5 131.107C119.5 130.916 119.566 130.752 119.698 130.615C119.835 130.478 119.999 130.41 120.191 130.41C120.382 130.405 120.544 130.471 120.676 130.608C121.118 131.041 121.647 131.257 122.262 131.257C122.882 131.257 123.41 131.036 123.848 130.594C124.29 130.157 124.511 129.626 124.511 129.002V126.062C124.511 125.442 124.29 124.914 123.848 124.476C123.41 124.034 122.882 123.813 122.262 123.813C121.638 123.813 121.107 124.034 120.669 124.476C120.227 124.914 120.006 125.442 120.006 126.062C120.006 126.682 120.227 127.213 120.669 127.655C121.107 128.092 121.638 128.311 122.262 128.311C122.59 128.311 122.9 128.245 123.192 128.113C123.369 128.031 123.547 128.024 123.725 128.092C123.903 128.156 124.032 128.275 124.114 128.448C124.192 128.626 124.197 128.803 124.128 128.981C124.064 129.159 123.946 129.289 123.773 129.371C123.294 129.589 122.791 129.699 122.262 129.699C121.259 129.699 120.403 129.343 119.692 128.632C118.981 127.922 118.625 127.065 118.625 126.062C118.625 125.06 118.981 124.203 119.692 123.492ZM130.51 122.439C130.706 122.439 130.899 122.457 131.091 122.494C131.278 122.526 131.426 122.621 131.535 122.781C131.644 122.94 131.681 123.114 131.644 123.3C131.608 123.487 131.512 123.635 131.357 123.745C131.198 123.854 131.025 123.891 130.838 123.854C130.728 123.831 130.619 123.82 130.51 123.82C129.958 123.82 129.487 124.041 129.095 124.483C128.703 124.921 128.504 125.449 128.5 126.069V129.015C128.5 129.207 128.434 129.368 128.302 129.501C128.165 129.637 128.001 129.706 127.809 129.706C127.618 129.706 127.456 129.637 127.324 129.501C127.187 129.368 127.119 129.207 127.119 129.015V123.13C127.119 122.938 127.187 122.776 127.324 122.644C127.456 122.507 127.618 122.439 127.809 122.439C128.001 122.439 128.165 122.507 128.302 122.644C128.434 122.776 128.5 122.938 128.5 123.13V123.143C129.097 122.674 129.767 122.439 130.51 122.439ZM132.66 122.637C132.792 122.505 132.954 122.439 133.145 122.439C133.336 122.439 133.501 122.505 133.637 122.637C133.769 122.774 133.835 122.938 133.835 123.13V129.008C133.835 129.2 133.769 129.364 133.637 129.501C133.501 129.637 133.336 129.706 133.145 129.706C132.954 129.706 132.792 129.637 132.66 129.501C132.523 129.364 132.455 129.2 132.455 129.008V123.13C132.455 122.938 132.523 122.774 132.66 122.637ZM132.591 120.867C132.455 120.735 132.386 120.573 132.386 120.381C132.386 120.19 132.455 120.026 132.591 119.889C132.728 119.757 132.892 119.691 133.084 119.691H133.186C133.377 119.691 133.542 119.757 133.678 119.889C133.815 120.026 133.883 120.19 133.883 120.381C133.883 120.573 133.815 120.735 133.678 120.867C133.542 121.004 133.377 121.072 133.186 121.072H133.084C132.892 121.072 132.728 121.004 132.591 120.867ZM139.096 123.82H136.84V126.069C136.84 126.689 137.061 127.22 137.503 127.662C137.941 128.099 138.472 128.318 139.096 128.318C139.283 128.318 139.444 128.386 139.581 128.523C139.718 128.66 139.786 128.822 139.786 129.008C139.786 129.2 139.718 129.364 139.581 129.501C139.444 129.637 139.283 129.706 139.096 129.706C138.093 129.706 137.236 129.35 136.526 128.639C135.815 127.928 135.459 127.072 135.459 126.069V120.183C135.459 119.996 135.527 119.835 135.664 119.698C135.796 119.561 135.958 119.493 136.15 119.493C136.341 119.493 136.505 119.561 136.642 119.698C136.774 119.835 136.84 119.996 136.84 120.183V122.439H139.096C139.283 122.439 139.444 122.505 139.581 122.637C139.718 122.774 139.786 122.938 139.786 123.13C139.786 123.321 139.718 123.483 139.581 123.615C139.444 123.752 139.283 123.82 139.096 123.82ZM147.186 123.123V129.002C147.186 130.004 146.854 130.861 146.188 131.572C145.527 132.283 144.73 132.638 143.796 132.638C143.231 132.638 142.7 132.497 142.203 132.214C141.706 131.932 141.301 131.54 140.986 131.039C140.886 130.879 140.856 130.706 140.897 130.519C140.938 130.332 141.041 130.189 141.205 130.089C141.364 129.984 141.538 129.952 141.724 129.993C141.911 130.038 142.055 130.141 142.155 130.3C142.556 130.938 143.103 131.257 143.796 131.257C144.347 131.257 144.819 131.036 145.211 130.594C145.603 130.157 145.799 129.628 145.799 129.008V128.988C145.202 129.462 144.534 129.699 143.796 129.699C142.861 129.699 142.062 129.343 141.396 128.632C140.735 127.922 140.405 127.065 140.405 126.062V123.123C140.405 122.931 140.473 122.767 140.61 122.63C140.742 122.498 140.904 122.432 141.096 122.432C141.287 122.432 141.451 122.498 141.588 122.63C141.72 122.767 141.786 122.931 141.786 123.123V126.062C141.786 126.682 141.982 127.213 142.374 127.655C142.77 128.092 143.244 128.311 143.796 128.311C144.347 128.311 144.819 128.092 145.211 127.655C145.603 127.213 145.799 126.682 145.799 126.062V123.123C145.799 122.931 145.867 122.767 146.004 122.63C146.14 122.498 146.304 122.432 146.496 122.432C146.687 122.432 146.849 122.498 146.981 122.63C147.118 122.767 147.186 122.931 147.186 123.123Z" fill="#3A3A3A"/>
</svg>
