<svg width="149" height="157" viewBox="0 0 149 157" fill="none" xmlns="http://www.w3.org/2000/svg">
<path d="M64.765 82.1875C64.4733 82.5625 64.1608 82.9167 63.8275 83.25C70.9525 88.8333 74.515 96.125 74.515 105.125C74.515 112.833 71.7858 119.396 66.3275 124.812C60.9108 130.271 54.3692 133 46.7025 133H12.9525C11.2025 133 9.72333 132.375 8.515 131.125C7.265 129.875 6.64 128.396 6.64 126.688V65.625C6.68167 59.125 8.74417 53.5833 12.8275 49C17.3275 43.9583 23.3067 41.4375 30.765 41.4375H46.7025C54.1608 41.4375 60.1608 43.9792 64.7025 49.0625C68.7858 53.6458 70.8275 59.1875 70.8275 65.6875C70.8275 72.1458 68.8067 77.6458 64.765 82.1875ZM19.265 65.6875V77.3125H46.7025C50.3692 77.3125 53.2233 76.1458 55.265 73.8125C57.1817 71.6458 58.14 68.9375 58.14 65.6875C58.14 62.6042 57.2858 60 55.5775 57.875C53.5358 55.3333 50.5775 54.0625 46.7025 54.0625H30.765C26.89 54.0625 23.9317 55.3333 21.89 57.875C20.1817 59.9583 19.3067 62.5625 19.265 65.6875ZM19.265 120.312H46.7025C50.8692 120.312 54.4317 118.833 57.39 115.875C60.39 112.917 61.89 109.333 61.89 105.125C61.89 100.958 60.39 97.3958 57.39 94.4375C54.4317 91.4375 50.8692 89.9375 46.7025 89.9375H19.265V120.312Z" fill="#D93E1C"/>
<path d="M89.0475 133C87.2975 133 85.7975 132.375 84.5475 131.125C83.2975 129.917 82.6725 128.438 82.6725 126.688C82.6725 124.938 83.2975 123.438 84.5475 122.188C85.7975 120.979 87.2975 120.375 89.0475 120.375H116.735C121.652 120.375 125.464 119.188 128.173 116.812C130.923 114.438 132.36 111.083 132.485 106.75C132.61 101.083 131.277 97.3333 128.485 95.5C126.193 94 121.131 92.9792 113.298 92.4375C104.089 91.8125 97.4433 90.375 93.36 88.125C86.1933 84.1667 82.6308 77.0208 82.6725 66.6875C82.7558 60.0625 84.86 54.3125 88.985 49.4375C93.485 44.1042 99.2142 41.4375 106.173 41.4375H133.11C134.86 41.4375 136.36 42.0625 137.61 43.3125C138.818 44.5208 139.423 46 139.423 47.75C139.423 49.5 138.818 51 137.61 52.25C136.36 53.4583 134.86 54.0625 133.11 54.0625H106.173C102.631 54.0625 99.86 55.5833 97.86 58.625C96.1933 61.0417 95.36 63.7708 95.36 66.8125C95.3183 71.9375 96.6517 75.3333 99.36 77C101.61 78.3333 106.548 79.2708 114.173 79.8125C123.589 80.4792 130.381 82 134.548 84.375C141.839 88.5417 145.36 96.1042 145.11 107.062C144.943 114.812 142.256 121.083 137.048 125.875C131.839 130.625 125.068 133 116.735 133H89.0475Z" fill="#C8C8C8"/>
<path d="M31.2395 142.19C31.3716 142.054 31.5334 141.985 31.7248 141.985C31.9162 141.985 32.0803 142.054 32.217 142.19C32.3537 142.323 32.4221 142.484 32.4221 142.676V147.912C32.4221 149.038 32.0484 150.002 31.301 150.804C30.5581 151.601 29.6626 152 28.6145 152C27.5526 152 26.6503 151.594 25.9074 150.783C25.1783 149.986 24.8137 149.029 24.8137 147.912V142.676C24.8137 142.484 24.882 142.323 25.0187 142.19C25.1509 142.054 25.3127 141.985 25.5041 141.985C25.6955 141.985 25.8596 142.054 25.9963 142.19C26.1284 142.323 26.1945 142.484 26.1945 142.676V147.912C26.1945 148.669 26.4383 149.313 26.926 149.847C27.3954 150.357 27.9582 150.612 28.6145 150.612C29.2844 150.612 29.854 150.348 30.3234 149.819C30.7974 149.295 31.0344 148.66 31.0344 147.912V142.676C31.0344 142.484 31.1027 142.323 31.2395 142.19ZM34.7225 145.793C35.4334 145.087 36.2902 144.733 37.2928 144.733C38.2909 144.733 39.1454 145.087 39.8563 145.793C40.5672 146.504 40.9227 147.361 40.9227 148.363C40.9227 149.366 40.5672 150.223 39.8563 150.934C39.1454 151.645 38.2909 152 37.2928 152C36.7323 152 36.2036 151.879 35.7069 151.638C35.5337 151.551 35.4152 151.419 35.3514 151.241C35.2922 151.059 35.3036 150.881 35.3856 150.708C35.4676 150.539 35.5998 150.423 35.7821 150.359C35.9598 150.296 36.1353 150.305 36.3084 150.387C36.6183 150.537 36.9465 150.612 37.2928 150.612C37.9126 150.612 38.4412 150.394 38.8787 149.956C39.3208 149.514 39.5418 148.983 39.5418 148.363C39.5418 147.743 39.3208 147.215 38.8787 146.777C38.4412 146.335 37.9126 146.114 37.2928 146.114C36.6685 146.114 36.1375 146.335 35.7 146.777C35.258 147.215 35.037 147.743 35.037 148.363V154.051C35.037 154.242 34.9709 154.406 34.8387 154.543C34.702 154.675 34.5379 154.741 34.3465 154.741C34.1551 154.741 33.9933 154.675 33.8612 154.543C33.7245 154.406 33.6561 154.242 33.6561 154.051V148.363C33.6561 147.361 34.0116 146.504 34.7225 145.793ZM43.2641 145.438C43.8611 144.968 44.5311 144.733 45.2739 144.733C46.2081 144.733 47.0057 145.087 47.6665 145.793C48.3318 146.504 48.6645 147.361 48.6645 148.363V151.303C48.6645 151.494 48.5962 151.658 48.4594 151.795C48.3273 151.932 48.1655 152 47.9741 152C47.7827 152 47.6186 151.932 47.4819 151.795C47.3452 151.658 47.2768 151.494 47.2768 151.303V148.363C47.2768 147.743 47.0809 147.215 46.6889 146.777C46.297 146.335 45.8253 146.114 45.2739 146.114C44.7225 146.114 44.2508 146.333 43.8589 146.771C43.4624 147.213 43.2641 147.743 43.2641 148.363V151.303C43.2641 151.494 43.1981 151.658 43.0659 151.795C42.9292 151.932 42.7651 152 42.5737 152C42.3823 152 42.2205 151.932 42.0884 151.795C41.9516 151.658 41.8833 151.494 41.8833 151.303V142.676C41.8833 142.484 41.9516 142.323 42.0884 142.19C42.2205 142.054 42.3823 141.985 42.5737 141.985C42.7651 141.985 42.9292 142.054 43.0659 142.19C43.1981 142.323 43.2641 142.484 43.2641 142.676V145.438ZM50.4796 145.793C51.1905 145.087 52.0473 144.733 53.0499 144.733C54.048 144.733 54.9025 145.087 55.6134 145.793C56.3243 146.504 56.6798 147.361 56.6798 148.363C56.6798 149.366 56.3243 150.223 55.6134 150.934C54.9025 151.645 54.048 152 53.0499 152C52.0473 152 51.1905 151.645 50.4796 150.934C49.7687 150.223 49.4132 149.366 49.4132 148.363C49.4132 147.361 49.7687 146.504 50.4796 145.793ZM51.4571 149.956C51.8946 150.394 52.4256 150.612 53.0499 150.612C53.6697 150.612 54.1984 150.394 54.6359 149.956C55.0779 149.514 55.2989 148.983 55.2989 148.363C55.2989 147.743 55.0779 147.215 54.6359 146.777C54.1984 146.335 53.6697 146.114 53.0499 146.114C52.4256 146.114 51.8946 146.335 51.4571 146.777C51.0151 147.215 50.7941 147.743 50.7941 148.363C50.7941 148.983 51.0151 149.514 51.4571 149.956ZM58.0505 142.19C58.1827 142.054 58.3445 141.985 58.5359 141.985C58.7273 141.985 58.8914 142.054 59.0281 142.19C59.1602 142.323 59.2263 142.484 59.2263 142.676V151.303C59.2263 151.494 59.1602 151.658 59.0281 151.795C58.8914 151.932 58.7273 152 58.5359 152C58.3445 152 58.1827 151.932 58.0505 151.795C57.9138 151.658 57.8455 151.494 57.8455 151.303V142.676C57.8455 142.484 57.9138 142.323 58.0505 142.19ZM66.4008 142.19C66.5375 142.054 66.7016 141.985 66.893 141.985C67.0844 141.985 67.2462 142.054 67.3783 142.19C67.515 142.323 67.5834 142.484 67.5834 142.676V148.363C67.5834 149.366 67.2279 150.223 66.517 150.934C65.8061 151.645 64.9516 152 63.9535 152C62.9509 152 62.0941 151.645 61.3832 150.934C60.6723 150.223 60.3168 149.366 60.3168 148.363C60.3168 147.361 60.6723 146.504 61.3832 145.793C62.0941 145.087 62.9509 144.733 63.9535 144.733C64.4867 144.733 64.9949 144.845 65.4779 145.068C65.6511 145.15 65.7719 145.28 65.8402 145.458C65.904 145.636 65.8949 145.811 65.8129 145.984C65.7354 146.158 65.6055 146.278 65.4232 146.347C65.2455 146.41 65.0701 146.401 64.8969 146.319C64.5961 146.183 64.2816 146.114 63.9535 146.114C63.3292 146.114 62.7982 146.335 62.3607 146.777C61.9187 147.215 61.6977 147.743 61.6977 148.363C61.6977 148.983 61.9187 149.514 62.3607 149.956C62.7982 150.394 63.3292 150.612 63.9535 150.612C64.5733 150.612 65.102 150.394 65.5395 149.956C65.9815 149.514 66.2025 148.983 66.2025 148.363V142.676C66.2025 142.484 66.2686 142.323 66.4008 142.19ZM72.5192 142.19C72.6514 142.054 72.8132 141.985 73.0046 141.985C73.196 141.985 73.36 142.054 73.4968 142.19C73.6289 142.323 73.695 142.484 73.695 142.676V151.303C73.695 151.494 73.6289 151.658 73.4968 151.795C73.36 151.932 73.196 152 73.0046 152C72.8132 152 72.6514 151.932 72.5192 151.795C72.3825 151.658 72.3141 151.494 72.3141 151.303V142.676C72.3141 142.484 72.3825 142.323 72.5192 142.19ZM76.5081 145.438C77.1051 144.968 77.7751 144.733 78.5179 144.733C79.4521 144.733 80.2497 145.087 80.9105 145.793C81.5758 146.504 81.9085 147.361 81.9085 148.363V151.303C81.9085 151.494 81.8402 151.658 81.7034 151.795C81.5713 151.932 81.4095 152 81.2181 152C81.0267 152 80.8626 151.932 80.7259 151.795C80.5892 151.658 80.5208 151.494 80.5208 151.303V148.363C80.5208 147.743 80.3249 147.215 79.9329 146.777C79.541 146.335 79.0693 146.114 78.5179 146.114C77.9665 146.114 77.4948 146.333 77.1029 146.771C76.7064 147.213 76.5081 147.743 76.5081 148.363V151.303C76.5081 151.494 76.442 151.658 76.3099 151.795C76.1732 151.932 76.0091 152 75.8177 152C75.6263 152 75.4645 151.932 75.3323 151.795C75.1956 151.658 75.1273 151.494 75.1273 151.303V145.424C75.1273 145.232 75.1956 145.068 75.3323 144.932C75.4645 144.799 75.6263 144.733 75.8177 144.733C76.0091 144.733 76.1732 144.799 76.3099 144.932C76.442 145.068 76.5081 145.232 76.5081 145.424V145.438ZM86.9775 146.114H84.7216V148.363C84.7216 148.983 84.9427 149.514 85.3847 149.956C85.8222 150.394 86.3532 150.612 86.9775 150.612C87.1643 150.612 87.3261 150.681 87.4629 150.817C87.5996 150.954 87.6679 151.116 87.6679 151.303C87.6679 151.494 87.5996 151.658 87.4629 151.795C87.3261 151.932 87.1643 152 86.9775 152C85.9749 152 85.1181 151.645 84.4072 150.934C83.6963 150.223 83.3408 149.366 83.3408 148.363V142.478C83.3408 142.291 83.4091 142.129 83.5459 141.992C83.678 141.855 83.8398 141.787 84.0312 141.787C84.2226 141.787 84.3867 141.855 84.5234 141.992C84.6556 142.129 84.7216 142.291 84.7216 142.478V144.733H86.9775C87.1643 144.733 87.3261 144.799 87.4629 144.932C87.5996 145.068 87.6679 145.232 87.6679 145.424C87.6679 145.615 87.5996 145.777 87.4629 145.909C87.3261 146.046 87.1643 146.114 86.9775 146.114ZM94.9723 147.058C94.9723 147.062 94.9723 147.064 94.9723 147.064V147.071C95.0452 147.244 95.0429 147.42 94.9654 147.598C94.8925 147.775 94.7672 147.898 94.5894 147.967L90.7203 149.519C90.6383 149.55 90.554 149.566 90.4674 149.566C90.1529 149.566 89.9387 149.421 89.8248 149.129C89.7519 148.956 89.7542 148.78 89.8316 148.603C89.9046 148.425 90.0299 148.302 90.2076 148.233L93.3453 146.976C92.8896 146.401 92.3017 146.114 91.5816 146.114C90.9573 146.114 90.4264 146.335 89.9889 146.777C89.5468 147.215 89.3258 147.743 89.3258 148.363C89.3258 148.983 89.5468 149.514 89.9889 149.956C90.4264 150.394 90.9573 150.612 91.5816 150.612C92.3108 150.612 92.901 150.323 93.3521 149.744C93.4706 149.594 93.6256 149.507 93.817 149.484C94.0038 149.462 94.1725 149.509 94.3228 149.628C94.4732 149.742 94.5621 149.895 94.5894 150.086C94.6122 150.277 94.5644 150.448 94.4459 150.599C93.7167 151.533 92.762 152 91.5816 152C90.579 152 89.7223 151.645 89.0113 150.934C88.3004 150.223 87.9449 149.366 87.9449 148.363C87.9449 147.361 88.3004 146.504 89.0113 145.793C89.7223 145.087 90.579 144.733 91.5816 144.733C92.3245 144.733 93.0081 144.945 93.6324 145.369C94.2568 145.798 94.7034 146.36 94.9723 147.058ZM96.6916 145.786C97.4026 145.08 98.2593 144.727 99.2619 144.727C100.26 144.727 101.114 145.08 101.825 145.786C102.536 146.497 102.892 147.354 102.892 148.356V151.296C102.892 152.299 102.536 153.155 101.825 153.866C101.114 154.577 100.26 154.933 99.2619 154.933C98.2685 154.933 97.4162 154.584 96.7053 153.887C96.5686 153.755 96.5002 153.593 96.5002 153.401C96.5002 153.21 96.5663 153.046 96.6985 152.909C96.8352 152.772 96.9993 152.704 97.1907 152.704C97.3821 152.7 97.5438 152.766 97.676 152.902C98.1181 153.335 98.6467 153.552 99.2619 153.552C99.8817 153.552 100.41 153.331 100.848 152.889C101.29 152.451 101.511 151.92 101.511 151.296V148.356C101.511 147.737 101.29 147.208 100.848 146.771C100.41 146.328 99.8817 146.107 99.2619 146.107C98.6376 146.107 98.1067 146.328 97.6692 146.771C97.2271 147.208 97.0061 147.737 97.0061 148.356C97.0061 148.976 97.2271 149.507 97.6692 149.949C98.1067 150.387 98.6376 150.605 99.2619 150.605C99.5901 150.605 99.9 150.539 100.192 150.407C100.369 150.325 100.547 150.318 100.725 150.387C100.903 150.451 101.032 150.569 101.114 150.742C101.192 150.92 101.197 151.098 101.128 151.275C101.064 151.453 100.946 151.583 100.773 151.665C100.294 151.884 99.7906 151.993 99.2619 151.993C98.2593 151.993 97.4026 151.638 96.6916 150.927C95.9807 150.216 95.6252 149.359 95.6252 148.356C95.6252 147.354 95.9807 146.497 96.6916 145.786ZM107.51 144.733C107.706 144.733 107.899 144.752 108.091 144.788C108.278 144.82 108.426 144.916 108.535 145.075C108.644 145.235 108.681 145.408 108.644 145.595C108.608 145.782 108.512 145.93 108.357 146.039C108.198 146.148 108.025 146.185 107.838 146.148C107.728 146.126 107.619 146.114 107.51 146.114C106.958 146.114 106.487 146.335 106.095 146.777C105.703 147.215 105.504 147.743 105.5 148.363V151.31C105.5 151.501 105.434 151.663 105.302 151.795C105.165 151.932 105.001 152 104.809 152C104.618 152 104.456 151.932 104.324 151.795C104.187 151.663 104.119 151.501 104.119 151.31V145.424C104.119 145.232 104.187 145.071 104.324 144.938C104.456 144.802 104.618 144.733 104.809 144.733C105.001 144.733 105.165 144.802 105.302 144.938C105.434 145.071 105.5 145.232 105.5 145.424V145.438C106.097 144.968 106.767 144.733 107.51 144.733ZM109.66 144.932C109.792 144.799 109.954 144.733 110.145 144.733C110.336 144.733 110.501 144.799 110.637 144.932C110.769 145.068 110.835 145.232 110.835 145.424V151.303C110.835 151.494 110.769 151.658 110.637 151.795C110.501 151.932 110.336 152 110.145 152C109.954 152 109.792 151.932 109.66 151.795C109.523 151.658 109.455 151.494 109.455 151.303V145.424C109.455 145.232 109.523 145.068 109.66 144.932ZM109.591 143.161C109.455 143.029 109.386 142.867 109.386 142.676C109.386 142.484 109.455 142.32 109.591 142.184C109.728 142.051 109.892 141.985 110.084 141.985H110.186C110.377 141.985 110.542 142.051 110.678 142.184C110.815 142.32 110.883 142.484 110.883 142.676C110.883 142.867 110.815 143.029 110.678 143.161C110.542 143.298 110.377 143.366 110.186 143.366H110.084C109.892 143.366 109.728 143.298 109.591 143.161ZM116.096 146.114H113.84V148.363C113.84 148.983 114.061 149.514 114.503 149.956C114.941 150.394 115.472 150.612 116.096 150.612C116.283 150.612 116.444 150.681 116.581 150.817C116.718 150.954 116.786 151.116 116.786 151.303C116.786 151.494 116.718 151.658 116.581 151.795C116.444 151.932 116.283 152 116.096 152C115.093 152 114.236 151.645 113.526 150.934C112.815 150.223 112.459 149.366 112.459 148.363V142.478C112.459 142.291 112.527 142.129 112.664 141.992C112.796 141.855 112.958 141.787 113.15 141.787C113.341 141.787 113.505 141.855 113.642 141.992C113.774 142.129 113.84 142.291 113.84 142.478V144.733H116.096C116.283 144.733 116.444 144.799 116.581 144.932C116.718 145.068 116.786 145.232 116.786 145.424C116.786 145.615 116.718 145.777 116.581 145.909C116.444 146.046 116.283 146.114 116.096 146.114ZM124.186 145.417V151.296C124.186 152.299 123.854 153.155 123.188 153.866C122.527 154.577 121.73 154.933 120.796 154.933C120.231 154.933 119.7 154.791 119.203 154.509C118.706 154.226 118.301 153.834 117.986 153.333C117.886 153.174 117.856 153 117.897 152.813C117.938 152.627 118.041 152.483 118.205 152.383C118.364 152.278 118.538 152.246 118.724 152.287C118.911 152.333 119.055 152.435 119.155 152.595C119.556 153.233 120.103 153.552 120.796 153.552C121.347 153.552 121.819 153.331 122.211 152.889C122.603 152.451 122.799 151.923 122.799 151.303V151.282C122.202 151.756 121.534 151.993 120.796 151.993C119.861 151.993 119.062 151.638 118.396 150.927C117.735 150.216 117.405 149.359 117.405 148.356V145.417C117.405 145.226 117.473 145.062 117.61 144.925C117.742 144.793 117.904 144.727 118.096 144.727C118.287 144.727 118.451 144.793 118.588 144.925C118.72 145.062 118.786 145.226 118.786 145.417V148.356C118.786 148.976 118.982 149.507 119.374 149.949C119.77 150.387 120.244 150.605 120.796 150.605C121.347 150.605 121.819 150.387 122.211 149.949C122.603 149.507 122.799 148.976 122.799 148.356V145.417C122.799 145.226 122.867 145.062 123.004 144.925C123.14 144.793 123.304 144.727 123.496 144.727C123.687 144.727 123.849 144.793 123.981 144.925C124.118 145.062 124.186 145.226 124.186 145.417Z" fill="#3A3A3A"/>
</svg>
