<svg width="140" height="114" viewBox="0 0 140 114" fill="none" xmlns="http://www.w3.org/2000/svg">
<path d="M58.765 41.1875C58.4733 41.5625 58.1608 41.9167 57.8275 42.25C64.9525 47.8333 68.515 55.125 68.515 64.125C68.515 71.8333 65.7858 78.3958 60.3275 83.8125C54.9108 89.2708 48.3692 92 40.7025 92H6.9525C5.2025 92 3.72333 91.375 2.515 90.125C1.265 88.875 0.639999 87.3958 0.639999 85.6875V24.625C0.681666 18.125 2.74417 12.5833 6.8275 8C11.3275 2.95833 17.3067 0.4375 24.765 0.4375H40.7025C48.1608 0.4375 54.1608 2.97917 58.7025 8.0625C62.7858 12.6458 64.8275 18.1875 64.8275 24.6875C64.8275 31.1458 62.8067 36.6458 58.765 41.1875ZM13.265 24.6875V36.3125H40.7025C44.3692 36.3125 47.2233 35.1458 49.265 32.8125C51.1817 30.6458 52.14 27.9375 52.14 24.6875C52.14 21.6042 51.2858 19 49.5775 16.875C47.5358 14.3333 44.5775 13.0625 40.7025 13.0625H24.765C20.89 13.0625 17.9317 14.3333 15.89 16.875C14.1817 18.9583 13.3067 21.5625 13.265 24.6875ZM13.265 79.3125H40.7025C44.8692 79.3125 48.4317 77.8333 51.39 74.875C54.39 71.9167 55.89 68.3333 55.89 64.125C55.89 59.9583 54.39 56.3958 51.39 53.4375C48.4317 50.4375 44.8692 48.9375 40.7025 48.9375H13.265V79.3125Z" fill="#D13A19"/>
<path d="M83.0475 92C81.2975 92 79.7975 91.375 78.5475 90.125C77.2975 88.9167 76.6725 87.4375 76.6725 85.6875C76.6725 83.9375 77.2975 82.4375 78.5475 81.1875C79.7975 79.9792 81.2975 79.375 83.0475 79.375H110.735C115.652 79.375 119.464 78.1875 122.173 75.8125C124.923 73.4375 126.36 70.0833 126.485 65.75C126.61 60.0833 125.277 56.3333 122.485 54.5C120.193 53 115.131 51.9792 107.298 51.4375C98.0892 50.8125 91.4433 49.375 87.36 47.125C80.1933 43.1667 76.6308 36.0208 76.6725 25.6875C76.7558 19.0625 78.86 13.3125 82.985 8.4375C87.485 3.10417 93.2142 0.4375 100.173 0.4375H127.11C128.86 0.4375 130.36 1.0625 131.61 2.3125C132.818 3.52083 133.423 5 133.423 6.75C133.423 8.5 132.818 10 131.61 11.25C130.36 12.4583 128.86 13.0625 127.11 13.0625H100.173C96.6308 13.0625 93.86 14.5833 91.86 17.625C90.1933 20.0417 89.36 22.7708 89.36 25.8125C89.3183 30.9375 90.6517 34.3333 93.36 36C95.61 37.3333 100.548 38.2708 108.173 38.8125C117.589 39.4792 124.381 41 128.548 43.375C135.839 47.5417 139.36 55.1042 139.11 66.0625C138.943 73.8125 136.256 80.0833 131.048 84.875C125.839 89.625 119.068 92 110.735 92H83.0475Z" fill="#C8C8C8"/>
<path d="M25.2395 101.19C25.3716 101.054 25.5334 100.985 25.7248 100.985C25.9162 100.985 26.0803 101.054 26.217 101.19C26.3537 101.323 26.4221 101.484 26.4221 101.676V106.912C26.4221 108.038 26.0484 109.002 25.301 109.804C24.5581 110.601 23.6626 111 22.6145 111C21.5526 111 20.6503 110.594 19.9074 109.783C19.1783 108.986 18.8137 108.029 18.8137 106.912V101.676C18.8137 101.484 18.882 101.323 19.0187 101.19C19.1509 101.054 19.3127 100.985 19.5041 100.985C19.6955 100.985 19.8596 101.054 19.9963 101.19C20.1284 101.323 20.1945 101.484 20.1945 101.676V106.912C20.1945 107.669 20.4383 108.313 20.926 108.847C21.3954 109.357 21.9582 109.612 22.6145 109.612C23.2844 109.612 23.854 109.348 24.3234 108.819C24.7974 108.295 25.0344 107.66 25.0344 106.912V101.676C25.0344 101.484 25.1027 101.323 25.2395 101.19ZM28.7225 104.793C29.4334 104.087 30.2902 103.733 31.2928 103.733C32.2909 103.733 33.1454 104.087 33.8563 104.793C34.5672 105.504 34.9227 106.361 34.9227 107.363C34.9227 108.366 34.5672 109.223 33.8563 109.934C33.1454 110.645 32.2909 111 31.2928 111C30.7323 111 30.2036 110.879 29.7069 110.638C29.5337 110.551 29.4152 110.419 29.3514 110.241C29.2922 110.059 29.3036 109.881 29.3856 109.708C29.4676 109.539 29.5998 109.423 29.7821 109.359C29.9598 109.296 30.1353 109.305 30.3084 109.387C30.6183 109.537 30.9465 109.612 31.2928 109.612C31.9126 109.612 32.4412 109.394 32.8787 108.956C33.3208 108.514 33.5418 107.983 33.5418 107.363C33.5418 106.743 33.3208 106.215 32.8787 105.777C32.4412 105.335 31.9126 105.114 31.2928 105.114C30.6685 105.114 30.1375 105.335 29.7 105.777C29.258 106.215 29.037 106.743 29.037 107.363V113.051C29.037 113.242 28.9709 113.406 28.8387 113.543C28.702 113.675 28.5379 113.741 28.3465 113.741C28.1551 113.741 27.9933 113.675 27.8612 113.543C27.7245 113.406 27.6561 113.242 27.6561 113.051V107.363C27.6561 106.361 28.0116 105.504 28.7225 104.793ZM37.2641 104.438C37.8611 103.968 38.5311 103.733 39.2739 103.733C40.2081 103.733 41.0057 104.087 41.6665 104.793C42.3318 105.504 42.6645 106.361 42.6645 107.363V110.303C42.6645 110.494 42.5962 110.658 42.4594 110.795C42.3273 110.932 42.1655 111 41.9741 111C41.7827 111 41.6186 110.932 41.4819 110.795C41.3452 110.658 41.2768 110.494 41.2768 110.303V107.363C41.2768 106.743 41.0809 106.215 40.6889 105.777C40.297 105.335 39.8253 105.114 39.2739 105.114C38.7225 105.114 38.2508 105.333 37.8589 105.771C37.4624 106.213 37.2641 106.743 37.2641 107.363V110.303C37.2641 110.494 37.1981 110.658 37.0659 110.795C36.9292 110.932 36.7651 111 36.5737 111C36.3823 111 36.2205 110.932 36.0884 110.795C35.9516 110.658 35.8833 110.494 35.8833 110.303V101.676C35.8833 101.484 35.9516 101.323 36.0884 101.19C36.2205 101.054 36.3823 100.985 36.5737 100.985C36.7651 100.985 36.9292 101.054 37.0659 101.19C37.1981 101.323 37.2641 101.484 37.2641 101.676V104.438ZM44.4796 104.793C45.1905 104.087 46.0473 103.733 47.0499 103.733C48.048 103.733 48.9025 104.087 49.6134 104.793C50.3243 105.504 50.6798 106.361 50.6798 107.363C50.6798 108.366 50.3243 109.223 49.6134 109.934C48.9025 110.645 48.048 111 47.0499 111C46.0473 111 45.1905 110.645 44.4796 109.934C43.7687 109.223 43.4132 108.366 43.4132 107.363C43.4132 106.361 43.7687 105.504 44.4796 104.793ZM45.4571 108.956C45.8946 109.394 46.4256 109.612 47.0499 109.612C47.6697 109.612 48.1984 109.394 48.6359 108.956C49.0779 108.514 49.2989 107.983 49.2989 107.363C49.2989 106.743 49.0779 106.215 48.6359 105.777C48.1984 105.335 47.6697 105.114 47.0499 105.114C46.4256 105.114 45.8946 105.335 45.4571 105.777C45.0151 106.215 44.7941 106.743 44.7941 107.363C44.7941 107.983 45.0151 108.514 45.4571 108.956ZM52.0505 101.19C52.1827 101.054 52.3445 100.985 52.5359 100.985C52.7273 100.985 52.8914 101.054 53.0281 101.19C53.1602 101.323 53.2263 101.484 53.2263 101.676V110.303C53.2263 110.494 53.1602 110.658 53.0281 110.795C52.8914 110.932 52.7273 111 52.5359 111C52.3445 111 52.1827 110.932 52.0505 110.795C51.9138 110.658 51.8455 110.494 51.8455 110.303V101.676C51.8455 101.484 51.9138 101.323 52.0505 101.19ZM60.4008 101.19C60.5375 101.054 60.7016 100.985 60.893 100.985C61.0844 100.985 61.2462 101.054 61.3783 101.19C61.515 101.323 61.5834 101.484 61.5834 101.676V107.363C61.5834 108.366 61.2279 109.223 60.517 109.934C59.8061 110.645 58.9516 111 57.9535 111C56.9509 111 56.0941 110.645 55.3832 109.934C54.6723 109.223 54.3168 108.366 54.3168 107.363C54.3168 106.361 54.6723 105.504 55.3832 104.793C56.0941 104.087 56.9509 103.733 57.9535 103.733C58.4867 103.733 58.9949 103.845 59.4779 104.068C59.6511 104.15 59.7719 104.28 59.8402 104.458C59.904 104.636 59.8949 104.811 59.8129 104.984C59.7354 105.158 59.6055 105.278 59.4232 105.347C59.2455 105.41 59.0701 105.401 58.8969 105.319C58.5961 105.183 58.2816 105.114 57.9535 105.114C57.3292 105.114 56.7982 105.335 56.3607 105.777C55.9187 106.215 55.6977 106.743 55.6977 107.363C55.6977 107.983 55.9187 108.514 56.3607 108.956C56.7982 109.394 57.3292 109.612 57.9535 109.612C58.5733 109.612 59.102 109.394 59.5395 108.956C59.9815 108.514 60.2025 107.983 60.2025 107.363V101.676C60.2025 101.484 60.2686 101.323 60.4008 101.19ZM66.5192 101.19C66.6514 101.054 66.8132 100.985 67.0046 100.985C67.196 100.985 67.36 101.054 67.4968 101.19C67.6289 101.323 67.695 101.484 67.695 101.676V110.303C67.695 110.494 67.6289 110.658 67.4968 110.795C67.36 110.932 67.196 111 67.0046 111C66.8132 111 66.6514 110.932 66.5192 110.795C66.3825 110.658 66.3141 110.494 66.3141 110.303V101.676C66.3141 101.484 66.3825 101.323 66.5192 101.19ZM70.5081 104.438C71.1051 103.968 71.7751 103.733 72.5179 103.733C73.4521 103.733 74.2497 104.087 74.9105 104.793C75.5758 105.504 75.9085 106.361 75.9085 107.363V110.303C75.9085 110.494 75.8402 110.658 75.7034 110.795C75.5713 110.932 75.4095 111 75.2181 111C75.0267 111 74.8626 110.932 74.7259 110.795C74.5892 110.658 74.5208 110.494 74.5208 110.303V107.363C74.5208 106.743 74.3249 106.215 73.9329 105.777C73.541 105.335 73.0693 105.114 72.5179 105.114C71.9665 105.114 71.4948 105.333 71.1029 105.771C70.7064 106.213 70.5081 106.743 70.5081 107.363V110.303C70.5081 110.494 70.442 110.658 70.3099 110.795C70.1732 110.932 70.0091 111 69.8177 111C69.6263 111 69.4645 110.932 69.3323 110.795C69.1956 110.658 69.1273 110.494 69.1273 110.303V104.424C69.1273 104.232 69.1956 104.068 69.3323 103.932C69.4645 103.799 69.6263 103.733 69.8177 103.733C70.0091 103.733 70.1732 103.799 70.3099 103.932C70.442 104.068 70.5081 104.232 70.5081 104.424V104.438ZM80.9775 105.114H78.7216V107.363C78.7216 107.983 78.9427 108.514 79.3847 108.956C79.8222 109.394 80.3532 109.612 80.9775 109.612C81.1643 109.612 81.3261 109.681 81.4629 109.817C81.5996 109.954 81.6679 110.116 81.6679 110.303C81.6679 110.494 81.5996 110.658 81.4629 110.795C81.3261 110.932 81.1643 111 80.9775 111C79.9749 111 79.1181 110.645 78.4072 109.934C77.6963 109.223 77.3408 108.366 77.3408 107.363V101.478C77.3408 101.291 77.4091 101.129 77.5459 100.992C77.678 100.855 77.8398 100.787 78.0312 100.787C78.2226 100.787 78.3867 100.855 78.5234 100.992C78.6556 101.129 78.7216 101.291 78.7216 101.478V103.733H80.9775C81.1643 103.733 81.3261 103.799 81.4629 103.932C81.5996 104.068 81.6679 104.232 81.6679 104.424C81.6679 104.615 81.5996 104.777 81.4629 104.909C81.3261 105.046 81.1643 105.114 80.9775 105.114ZM88.9723 106.058C88.9723 106.062 88.9723 106.064 88.9723 106.064V106.071C89.0452 106.244 89.0429 106.42 88.9654 106.598C88.8925 106.775 88.7672 106.898 88.5894 106.967L84.7203 108.519C84.6383 108.55 84.554 108.566 84.4674 108.566C84.1529 108.566 83.9387 108.421 83.8248 108.129C83.7519 107.956 83.7542 107.78 83.8316 107.603C83.9046 107.425 84.0299 107.302 84.2076 107.233L87.3453 105.976C86.8896 105.401 86.3017 105.114 85.5816 105.114C84.9573 105.114 84.4264 105.335 83.9889 105.777C83.5468 106.215 83.3258 106.743 83.3258 107.363C83.3258 107.983 83.5468 108.514 83.9889 108.956C84.4264 109.394 84.9573 109.612 85.5816 109.612C86.3108 109.612 86.901 109.323 87.3521 108.744C87.4706 108.594 87.6256 108.507 87.817 108.484C88.0038 108.462 88.1725 108.509 88.3228 108.628C88.4732 108.742 88.5621 108.895 88.5894 109.086C88.6122 109.277 88.5644 109.448 88.4459 109.599C87.7167 110.533 86.762 111 85.5816 111C84.579 111 83.7223 110.645 83.0113 109.934C82.3004 109.223 81.9449 108.366 81.9449 107.363C81.9449 106.361 82.3004 105.504 83.0113 104.793C83.7223 104.087 84.579 103.733 85.5816 103.733C86.3245 103.733 87.0081 103.945 87.6324 104.369C88.2568 104.798 88.7034 105.36 88.9723 106.058ZM90.6916 104.786C91.4026 104.08 92.2593 103.727 93.2619 103.727C94.26 103.727 95.1145 104.08 95.8254 104.786C96.5364 105.497 96.8918 106.354 96.8918 107.356V110.296C96.8918 111.299 96.5364 112.155 95.8254 112.866C95.1145 113.577 94.26 113.933 93.2619 113.933C92.2685 113.933 91.4162 113.584 90.7053 112.887C90.5686 112.755 90.5002 112.593 90.5002 112.401C90.5002 112.21 90.5663 112.046 90.6985 111.909C90.8352 111.772 90.9993 111.704 91.1907 111.704C91.3821 111.7 91.5438 111.766 91.676 111.902C92.1181 112.335 92.6467 112.552 93.2619 112.552C93.8817 112.552 94.4104 112.331 94.8479 111.889C95.2899 111.451 95.511 110.92 95.511 110.296V107.356C95.511 106.737 95.2899 106.208 94.8479 105.771C94.4104 105.328 93.8817 105.107 93.2619 105.107C92.6376 105.107 92.1067 105.328 91.6692 105.771C91.2271 106.208 91.0061 106.737 91.0061 107.356C91.0061 107.976 91.2271 108.507 91.6692 108.949C92.1067 109.387 92.6376 109.605 93.2619 109.605C93.5901 109.605 93.9 109.539 94.1916 109.407C94.3694 109.325 94.5471 109.318 94.7248 109.387C94.9026 109.451 95.0325 109.569 95.1145 109.742C95.192 109.92 95.1965 110.098 95.1282 110.275C95.0644 110.453 94.9459 110.583 94.7727 110.665C94.2942 110.884 93.7906 110.993 93.2619 110.993C92.2593 110.993 91.4026 110.638 90.6916 109.927C89.9807 109.216 89.6252 108.359 89.6252 107.356C89.6252 106.354 89.9807 105.497 90.6916 104.786ZM101.51 103.733C101.706 103.733 101.899 103.752 102.091 103.788C102.278 103.82 102.426 103.916 102.535 104.075C102.644 104.235 102.681 104.408 102.644 104.595C102.608 104.782 102.512 104.93 102.357 105.039C102.198 105.148 102.025 105.185 101.838 105.148C101.728 105.126 101.619 105.114 101.51 105.114C100.958 105.114 100.487 105.335 100.095 105.777C99.7027 106.215 99.5044 106.743 99.4999 107.363V110.31C99.4999 110.501 99.4338 110.663 99.3016 110.795C99.1649 110.932 99.0009 111 98.8094 111C98.618 111 98.4563 110.932 98.3241 110.795C98.1874 110.663 98.119 110.501 98.119 110.31V104.424C98.119 104.232 98.1874 104.071 98.3241 103.938C98.4563 103.802 98.618 103.733 98.8094 103.733C99.0009 103.733 99.1649 103.802 99.3016 103.938C99.4338 104.071 99.4999 104.232 99.4999 104.424V104.438C100.097 103.968 100.767 103.733 101.51 103.733ZM103.66 103.932C103.792 103.799 103.954 103.733 104.145 103.733C104.336 103.733 104.501 103.799 104.637 103.932C104.769 104.068 104.835 104.232 104.835 104.424V110.303C104.835 110.494 104.769 110.658 104.637 110.795C104.501 110.932 104.336 111 104.145 111C103.954 111 103.792 110.932 103.66 110.795C103.523 110.658 103.455 110.494 103.455 110.303V104.424C103.455 104.232 103.523 104.068 103.66 103.932ZM103.591 102.161C103.455 102.029 103.386 101.867 103.386 101.676C103.386 101.484 103.455 101.32 103.591 101.184C103.728 101.051 103.892 100.985 104.084 100.985H104.186C104.377 100.985 104.542 101.051 104.678 101.184C104.815 101.32 104.883 101.484 104.883 101.676C104.883 101.867 104.815 102.029 104.678 102.161C104.542 102.298 104.377 102.366 104.186 102.366H104.084C103.892 102.366 103.728 102.298 103.591 102.161ZM110.096 105.114H107.84V107.363C107.84 107.983 108.061 108.514 108.503 108.956C108.941 109.394 109.472 109.612 110.096 109.612C110.283 109.612 110.444 109.681 110.581 109.817C110.718 109.954 110.786 110.116 110.786 110.303C110.786 110.494 110.718 110.658 110.581 110.795C110.444 110.932 110.283 111 110.096 111C109.093 111 108.236 110.645 107.526 109.934C106.815 109.223 106.459 108.366 106.459 107.363V101.478C106.459 101.291 106.527 101.129 106.664 100.992C106.796 100.855 106.958 100.787 107.15 100.787C107.341 100.787 107.505 100.855 107.642 100.992C107.774 101.129 107.84 101.291 107.84 101.478V103.733H110.096C110.283 103.733 110.444 103.799 110.581 103.932C110.718 104.068 110.786 104.232 110.786 104.424C110.786 104.615 110.718 104.777 110.581 104.909C110.444 105.046 110.283 105.114 110.096 105.114ZM118.186 104.417V110.296C118.186 111.299 117.854 112.155 117.188 112.866C116.527 113.577 115.73 113.933 114.796 113.933C114.231 113.933 113.7 113.791 113.203 113.509C112.706 113.226 112.301 112.834 111.986 112.333C111.886 112.174 111.856 112 111.897 111.813C111.938 111.627 112.041 111.483 112.205 111.383C112.364 111.278 112.538 111.246 112.724 111.287C112.911 111.333 113.055 111.435 113.155 111.595C113.556 112.233 114.103 112.552 114.796 112.552C115.347 112.552 115.819 112.331 116.211 111.889C116.603 111.451 116.799 110.923 116.799 110.303V110.282C116.202 110.756 115.534 110.993 114.796 110.993C113.861 110.993 113.062 110.638 112.396 109.927C111.735 109.216 111.405 108.359 111.405 107.356V104.417C111.405 104.226 111.473 104.062 111.61 103.925C111.742 103.793 111.904 103.727 112.096 103.727C112.287 103.727 112.451 103.793 112.588 103.925C112.72 104.062 112.786 104.226 112.786 104.417V107.356C112.786 107.976 112.982 108.507 113.374 108.949C113.77 109.387 114.244 109.605 114.796 109.605C115.347 109.605 115.819 109.387 116.211 108.949C116.603 108.507 116.799 107.976 116.799 107.356V104.417C116.799 104.226 116.867 104.062 117.004 103.925C117.14 103.793 117.304 103.727 117.496 103.727C117.687 103.727 117.849 103.793 117.981 103.925C118.118 104.062 118.186 104.226 118.186 104.417Z" fill="#3A3A3A"/>
</svg>
