<svg width="602" height="131" viewBox="0 0 602 131" fill="none" xmlns="http://www.w3.org/2000/svg">
<g filter="url(#filter0_d_1004_1141)">
<rect x="4" width="593.919" height="123" fill="#D2954D"/>
</g>
<path d="M166.638 74L158.378 63.15V74H152.393V49.43H158.378V60.21L166.568 49.43H173.603L164.083 61.47L173.953 74H166.638ZM193.597 49.43V66.16C193.597 68.75 192.862 70.745 191.392 72.145C189.946 73.545 187.986 74.245 185.512 74.245C182.922 74.245 180.846 73.51 179.282 72.04C177.719 70.57 176.937 68.4817 176.937 65.775H182.887C182.887 66.8017 183.097 67.5833 183.517 68.12C183.937 68.6333 184.544 68.89 185.337 68.89C186.061 68.89 186.621 68.6567 187.017 68.19C187.414 67.7233 187.612 67.0467 187.612 66.16V49.43H193.597ZM215.127 69.66H205.957L204.487 74H198.222L207.112 49.43H214.042L222.932 74H216.597L215.127 69.66ZM213.587 65.04L210.542 56.045L207.532 65.04H213.587ZM250.729 61.4C252.153 61.7033 253.296 62.415 254.159 63.535C255.023 64.6317 255.454 65.8917 255.454 67.315C255.454 69.3683 254.731 71.0017 253.284 72.215C251.861 73.405 249.866 74 247.299 74H235.854V49.43H246.914C249.411 49.43 251.359 50.0017 252.759 51.145C254.183 52.2883 254.894 53.84 254.894 55.8C254.894 57.2467 254.509 58.4483 253.739 59.405C252.993 60.3617 251.989 61.0267 250.729 61.4ZM241.839 59.37H245.759C246.739 59.37 247.486 59.16 247.999 58.74C248.536 58.2967 248.804 57.655 248.804 56.815C248.804 55.975 248.536 55.3333 247.999 54.89C247.486 54.4467 246.739 54.225 245.759 54.225H241.839V59.37ZM246.249 69.17C247.253 69.17 248.023 68.9483 248.559 68.505C249.119 68.0383 249.399 67.3733 249.399 66.51C249.399 65.6467 249.108 64.97 248.524 64.48C247.964 63.99 247.183 63.745 246.179 63.745H241.839V69.17H246.249ZM275.621 69.66H266.451L264.981 74H258.716L267.606 49.43H274.536L283.426 74H277.091L275.621 69.66ZM274.081 65.04L271.036 56.045L268.026 65.04H274.081ZM296.421 74.245C294.625 74.245 293.015 73.9533 291.591 73.37C290.168 72.7867 289.025 71.9233 288.161 70.78C287.321 69.6367 286.878 68.26 286.831 66.65H293.201C293.295 67.56 293.61 68.26 294.146 68.75C294.683 69.2167 295.383 69.45 296.246 69.45C297.133 69.45 297.833 69.2517 298.346 68.855C298.86 68.435 299.116 67.8633 299.116 67.14C299.116 66.5333 298.906 66.0317 298.486 65.635C298.09 65.2383 297.588 64.9117 296.981 64.655C296.398 64.3983 295.558 64.1067 294.461 63.78C292.875 63.29 291.58 62.8 290.576 62.31C289.573 61.82 288.71 61.0967 287.986 60.14C287.263 59.1833 286.901 57.935 286.901 56.395C286.901 54.1083 287.73 52.3233 289.386 51.04C291.043 49.7333 293.201 49.08 295.861 49.08C298.568 49.08 300.75 49.7333 302.406 51.04C304.063 52.3233 304.95 54.12 305.066 56.43H298.591C298.545 55.6367 298.253 55.0183 297.716 54.575C297.18 54.1083 296.491 53.875 295.651 53.875C294.928 53.875 294.345 54.0733 293.901 54.47C293.458 54.8433 293.236 55.3917 293.236 56.115C293.236 56.9083 293.61 57.5267 294.356 57.97C295.103 58.4133 296.27 58.8917 297.856 59.405C299.443 59.9417 300.726 60.455 301.706 60.945C302.71 61.435 303.573 62.1467 304.296 63.08C305.02 64.0133 305.381 65.215 305.381 66.685C305.381 68.085 305.02 69.3567 304.296 70.5C303.596 71.6433 302.57 72.5533 301.216 73.23C299.863 73.9067 298.265 74.245 296.421 74.245ZM325.759 69.66H316.589L315.119 74H308.854L317.744 49.43H324.674L333.564 74H327.229L325.759 69.66ZM324.219 65.04L321.174 56.045L318.164 65.04H324.219ZM343.55 49.43V64.13C343.55 65.6 343.912 66.7317 344.635 67.525C345.358 68.3183 346.42 68.715 347.82 68.715C349.22 68.715 350.293 68.3183 351.04 67.525C351.787 66.7317 352.16 65.6 352.16 64.13V49.43H358.145V64.095C358.145 66.2883 357.678 68.1433 356.745 69.66C355.812 71.1767 354.552 72.32 352.965 73.09C351.402 73.86 349.652 74.245 347.715 74.245C345.778 74.245 344.04 73.8717 342.5 73.125C340.983 72.355 339.782 71.2117 338.895 69.695C338.008 68.155 337.565 66.2883 337.565 64.095V49.43H343.55ZM369.733 69.38H377.573V74H363.748V49.43H369.733V69.38ZM387.813 49.43V74H381.828V49.43H387.813ZM411.257 74.245C409.46 74.245 407.85 73.9533 406.427 73.37C405.003 72.7867 403.86 71.9233 402.997 70.78C402.157 69.6367 401.713 68.26 401.667 66.65H408.037C408.13 67.56 408.445 68.26 408.982 68.75C409.518 69.2167 410.218 69.45 411.082 69.45C411.968 69.45 412.668 69.2517 413.182 68.855C413.695 68.435 413.952 67.8633 413.952 67.14C413.952 66.5333 413.742 66.0317 413.322 65.635C412.925 65.2383 412.423 64.9117 411.817 64.655C411.233 64.3983 410.393 64.1067 409.297 63.78C407.71 63.29 406.415 62.8 405.412 62.31C404.408 61.82 403.545 61.0967 402.822 60.14C402.098 59.1833 401.737 57.935 401.737 56.395C401.737 54.1083 402.565 52.3233 404.222 51.04C405.878 49.7333 408.037 49.08 410.697 49.08C413.403 49.08 415.585 49.7333 417.242 51.04C418.898 52.3233 419.785 54.12 419.902 56.43H413.427C413.38 55.6367 413.088 55.0183 412.552 54.575C412.015 54.1083 411.327 53.875 410.487 53.875C409.763 53.875 409.18 54.0733 408.737 54.47C408.293 54.8433 408.072 55.3917 408.072 56.115C408.072 56.9083 408.445 57.5267 409.192 57.97C409.938 58.4133 411.105 58.8917 412.692 59.405C414.278 59.9417 415.562 60.455 416.542 60.945C417.545 61.435 418.408 62.1467 419.132 63.08C419.855 64.0133 420.217 65.215 420.217 66.685C420.217 68.085 419.855 69.3567 419.132 70.5C418.432 71.6433 417.405 72.5533 416.052 73.23C414.698 73.9067 413.1 74.245 411.257 74.245ZM431.285 49.43V74H425.3V49.43H431.285ZM452.317 69.66H443.147L441.677 74H435.412L444.302 49.43H451.232L460.122 74H453.787L452.317 69.66ZM450.777 65.04L447.732 56.045L444.722 65.04H450.777ZM486.208 74H480.223L470.213 58.845V74H464.228V49.43H470.213L480.223 64.655V49.43H486.208V74ZM497.931 49.43V74H491.946V49.43H497.931ZM522.394 57.34C522.394 58.7633 522.067 60.07 521.414 61.26C520.76 62.4267 519.757 63.3717 518.404 64.095C517.05 64.8183 515.37 65.18 513.364 65.18H509.654V74H503.669V49.43H513.364C515.324 49.43 516.98 49.7683 518.334 50.445C519.687 51.1217 520.702 52.055 521.379 53.245C522.055 54.435 522.394 55.8 522.394 57.34ZM512.909 60.42C514.052 60.42 514.904 60.1517 515.464 59.615C516.024 59.0783 516.304 58.32 516.304 57.34C516.304 56.36 516.024 55.6017 515.464 55.065C514.904 54.5283 514.052 54.26 512.909 54.26H509.654V60.42H512.909ZM542.204 69.66H533.034L531.564 74H525.299L534.189 49.43H541.119L550.009 74H543.674L542.204 69.66ZM540.664 65.04L537.619 56.045L534.609 65.04H540.664ZM566.645 74L561.535 64.725H560.1V74H554.115V49.43H564.16C566.097 49.43 567.742 49.7683 569.095 50.445C570.472 51.1217 571.498 52.055 572.175 53.245C572.852 54.4117 573.19 55.7183 573.19 57.165C573.19 58.7983 572.723 60.2567 571.79 61.54C570.88 62.8233 569.527 63.7333 567.73 64.27L573.4 74H566.645ZM560.1 60.49H563.81C564.907 60.49 565.723 60.2217 566.26 59.685C566.82 59.1483 567.1 58.39 567.1 57.41C567.1 56.4767 566.82 55.7417 566.26 55.205C565.723 54.6683 564.907 54.4 563.81 54.4H560.1V60.49Z" fill="#3A3A3A"/>
<path d="M77.3947 49.3027C77.1669 49.5957 76.9227 49.8724 76.6623 50.1328C82.2287 54.4948 85.0119 60.1914 85.0119 67.2227C85.0119 73.2448 82.8798 78.3717 78.6154 82.6035C74.3837 86.8678 69.273 89 63.2834 89H36.9162C35.549 89 34.3934 88.5117 33.4494 87.5352C32.4729 86.5586 31.9846 85.403 31.9846 84.0684V36.3633C32.0171 31.2852 33.6285 26.9557 36.8186 23.375C40.3342 19.4362 45.0054 17.4668 50.8322 17.4668H63.2834C69.1102 17.4668 73.7977 19.4525 77.3459 23.4238C80.536 27.0046 82.1311 31.334 82.1311 36.4121C82.1311 41.4577 80.5523 45.7546 77.3947 49.3027ZM41.8479 36.4121V45.4941H63.2834C66.148 45.4941 68.3778 44.5827 69.9729 42.7598C71.4703 41.0671 72.219 38.9512 72.219 36.4121C72.219 34.0033 71.5516 31.9688 70.217 30.3086C68.622 28.3229 66.3108 27.3301 63.2834 27.3301H50.8322C47.8049 27.3301 45.4937 28.3229 43.8986 30.3086C42.564 31.9362 41.8804 33.9707 41.8479 36.4121ZM41.8479 79.0879H63.2834C66.5386 79.0879 69.3218 77.9323 71.633 75.6211C73.9768 73.3099 75.1486 70.5104 75.1486 67.2227C75.1486 63.9674 73.9768 61.1842 71.633 58.873C69.3218 56.5293 66.5386 55.3574 63.2834 55.3574H41.8479V79.0879Z" fill="#D93E1C"/>
<path d="M96.3654 89C94.9983 89 93.8264 88.5117 92.8498 87.5352C91.8733 86.5911 91.385 85.4355 91.385 84.0684C91.385 82.7012 91.8733 81.5293 92.8498 80.5527C93.8264 79.6087 94.9983 79.1367 96.3654 79.1367H117.996C121.837 79.1367 124.816 78.209 126.932 76.3535C129.08 74.498 130.203 71.8776 130.301 68.4922C130.399 64.0651 129.357 61.1354 127.176 59.7031C125.386 58.5312 121.431 57.7337 115.311 57.3105C108.117 56.8223 102.925 55.6992 99.7346 53.9414C94.1356 50.849 91.3524 45.2663 91.385 37.1934C91.4501 32.0176 93.094 27.5254 96.3166 23.7168C99.8322 19.5501 104.308 17.4668 109.744 17.4668H130.789C132.156 17.4668 133.328 17.9551 134.305 18.9316C135.249 19.8757 135.721 21.0312 135.721 22.3984C135.721 23.7656 135.249 24.9375 134.305 25.9141C133.328 26.8581 132.156 27.3301 130.789 27.3301H109.744C106.977 27.3301 104.813 28.5182 103.25 30.8945C101.948 32.7826 101.297 34.9147 101.297 37.291C101.265 41.2949 102.306 43.9479 104.422 45.25C106.18 46.2917 110.037 47.0241 115.994 47.4473C123.351 47.9681 128.657 49.1562 131.912 51.0117C137.609 54.2669 140.36 60.1751 140.164 68.7363C140.034 74.791 137.934 79.6901 133.865 83.4336C129.796 87.1445 124.507 89 117.996 89H96.3654Z" fill="white"/>
<path d="M29.5596 101.789C29.7106 101.633 29.8955 101.555 30.1143 101.555C30.333 101.555 30.5205 101.633 30.6768 101.789C30.833 101.94 30.9112 102.125 30.9112 102.344V108.328C30.9112 109.615 30.4841 110.716 29.6299 111.633C28.7809 112.544 27.7575 113 26.5596 113C25.346 113 24.3148 112.536 23.4658 111.609C22.6325 110.698 22.2158 109.604 22.2158 108.328V102.344C22.2158 102.125 22.294 101.94 22.4502 101.789C22.6013 101.633 22.7862 101.555 23.0049 101.555C23.2237 101.555 23.4112 101.633 23.5674 101.789C23.7184 101.94 23.794 102.125 23.794 102.344V108.328C23.794 109.193 24.0726 109.93 24.6299 110.539C25.1664 111.122 25.8096 111.414 26.5596 111.414C27.3252 111.414 27.9763 111.112 28.5127 110.508C29.0544 109.909 29.3252 109.182 29.3252 108.328V102.344C29.3252 102.125 29.4033 101.94 29.5596 101.789ZM34.3402 105.906C35.1527 105.099 36.1319 104.695 37.2777 104.695C38.4183 104.695 39.3949 105.099 40.2074 105.906C41.0199 106.719 41.4262 107.698 41.4262 108.844C41.4262 109.99 41.0199 110.969 40.2074 111.781C39.3949 112.594 38.4183 113 37.2777 113C36.6371 113 36.0329 112.862 35.4652 112.586C35.2673 112.487 35.1319 112.336 35.059 112.133C34.9913 111.924 35.0043 111.721 35.098 111.523C35.1918 111.331 35.3428 111.198 35.5512 111.125C35.7543 111.052 35.9548 111.062 36.1527 111.156C36.5069 111.328 36.8819 111.414 37.2777 111.414C37.986 111.414 38.5902 111.164 39.0902 110.664C39.5954 110.159 39.848 109.552 39.848 108.844C39.848 108.135 39.5954 107.531 39.0902 107.031C38.5902 106.526 37.986 106.273 37.2777 106.273C36.5642 106.273 35.9574 106.526 35.4574 107.031C34.9522 107.531 34.6996 108.135 34.6996 108.844V115.344C34.6996 115.562 34.6241 115.75 34.473 115.906C34.3168 116.057 34.1293 116.133 33.9105 116.133C33.6918 116.133 33.5069 116.057 33.3558 115.906C33.1996 115.75 33.1215 115.562 33.1215 115.344V108.844C33.1215 107.698 33.5277 106.719 34.3402 105.906ZM44.9021 105.5C45.5844 104.964 46.35 104.695 47.199 104.695C48.2667 104.695 49.1781 105.099 49.9333 105.906C50.6938 106.719 51.074 107.698 51.074 108.844V112.203C51.074 112.422 50.9958 112.609 50.8396 112.766C50.6885 112.922 50.5037 113 50.2849 113C50.0662 113 49.8787 112.922 49.7224 112.766C49.5662 112.609 49.488 112.422 49.488 112.203V108.844C49.488 108.135 49.2641 107.531 48.8162 107.031C48.3682 106.526 47.8292 106.273 47.199 106.273C46.5688 106.273 46.0297 106.523 45.5818 107.023C45.1287 107.529 44.9021 108.135 44.9021 108.844V112.203C44.9021 112.422 44.8266 112.609 44.6755 112.766C44.5193 112.922 44.3318 113 44.113 113C43.8943 113 43.7094 112.922 43.5583 112.766C43.4021 112.609 43.324 112.422 43.324 112.203V102.344C43.324 102.125 43.4021 101.94 43.5583 101.789C43.7094 101.633 43.8943 101.555 44.113 101.555C44.3318 101.555 44.5193 101.633 44.6755 101.789C44.8266 101.94 44.9021 102.125 44.9021 102.344V105.5ZM53.9483 105.906C54.7608 105.099 55.74 104.695 56.8858 104.695C58.0265 104.695 59.003 105.099 59.8155 105.906C60.628 106.719 61.0343 107.698 61.0343 108.844C61.0343 109.99 60.628 110.969 59.8155 111.781C59.003 112.594 58.0265 113 56.8858 113C55.74 113 54.7608 112.594 53.9483 111.781C53.1358 110.969 52.7296 109.99 52.7296 108.844C52.7296 107.698 53.1358 106.719 53.9483 105.906ZM55.0655 110.664C55.5655 111.164 56.1723 111.414 56.8858 111.414C57.5942 111.414 58.1983 111.164 58.6983 110.664C59.2035 110.159 59.4562 109.552 59.4562 108.844C59.4562 108.135 59.2035 107.531 58.6983 107.031C58.1983 106.526 57.5942 106.273 56.8858 106.273C56.1723 106.273 55.5655 106.526 55.0655 107.031C54.5603 107.531 54.3077 108.135 54.3077 108.844C54.3077 109.552 54.5603 110.159 55.0655 110.664ZM63.4008 101.789C63.5519 101.633 63.7368 101.555 63.9555 101.555C64.1743 101.555 64.3618 101.633 64.518 101.789C64.6691 101.94 64.7446 102.125 64.7446 102.344V112.203C64.7446 112.422 64.6691 112.609 64.518 112.766C64.3618 112.922 64.1743 113 63.9555 113C63.7368 113 63.5519 112.922 63.4008 112.766C63.2446 112.609 63.1665 112.422 63.1665 112.203V102.344C63.1665 102.125 63.2446 101.94 63.4008 101.789ZM73.744 101.789C73.9002 101.633 74.0877 101.555 74.3065 101.555C74.5252 101.555 74.7101 101.633 74.8612 101.789C75.0174 101.94 75.0955 102.125 75.0955 102.344V108.844C75.0955 109.99 74.6893 110.969 73.8768 111.781C73.0643 112.594 72.0877 113 70.9471 113C69.8013 113 68.8221 112.594 68.0096 111.781C67.1971 110.969 66.7908 109.99 66.7908 108.844C66.7908 107.698 67.1971 106.719 68.0096 105.906C68.8221 105.099 69.8013 104.695 70.9471 104.695C71.5565 104.695 72.1372 104.823 72.6893 105.078C72.8872 105.172 73.0252 105.32 73.1033 105.523C73.1763 105.727 73.1658 105.927 73.0721 106.125C72.9835 106.323 72.8351 106.461 72.6268 106.539C72.4237 106.612 72.2231 106.602 72.0252 106.508C71.6815 106.352 71.3221 106.273 70.9471 106.273C70.2335 106.273 69.6268 106.526 69.1268 107.031C68.6216 107.531 68.369 108.135 68.369 108.844C68.369 109.552 68.6216 110.159 69.1268 110.664C69.6268 111.164 70.2335 111.414 70.9471 111.414C71.6554 111.414 72.2596 111.164 72.7596 110.664C73.2648 110.159 73.5174 109.552 73.5174 108.844V102.344C73.5174 102.125 73.5929 101.94 73.744 101.789ZM82.3365 101.789C82.4875 101.633 82.6724 101.555 82.8912 101.555C83.1099 101.555 83.2974 101.633 83.4537 101.789C83.6047 101.94 83.6802 102.125 83.6802 102.344V112.203C83.6802 112.422 83.6047 112.609 83.4537 112.766C83.2974 112.922 83.1099 113 82.8912 113C82.6724 113 82.4875 112.922 82.3365 112.766C82.1802 112.609 82.1021 112.422 82.1021 112.203V102.344C82.1021 102.125 82.1802 101.94 82.3365 101.789ZM87.6952 105.5C88.3775 104.964 89.1431 104.695 89.9921 104.695C91.0598 104.695 91.9713 105.099 92.7265 105.906C93.4869 106.719 93.8671 107.698 93.8671 108.844V112.203C93.8671 112.422 93.789 112.609 93.6327 112.766C93.4817 112.922 93.2968 113 93.078 113C92.8593 113 92.6718 112.922 92.5155 112.766C92.3593 112.609 92.2812 112.422 92.2812 112.203V108.844C92.2812 108.135 92.0572 107.531 91.6093 107.031C91.1614 106.526 90.6223 106.273 89.9921 106.273C89.3619 106.273 88.8228 106.523 88.3749 107.023C87.9218 107.529 87.6952 108.135 87.6952 108.844V112.203C87.6952 112.422 87.6197 112.609 87.4687 112.766C87.3124 112.922 87.1249 113 86.9062 113C86.6874 113 86.5025 112.922 86.3515 112.766C86.1952 112.609 86.1171 112.422 86.1171 112.203V105.484C86.1171 105.266 86.1952 105.078 86.3515 104.922C86.5025 104.771 86.6874 104.695 86.9062 104.695C87.1249 104.695 87.3124 104.771 87.4687 104.922C87.6197 105.078 87.6952 105.266 87.6952 105.484V105.5ZM100.46 106.273H97.8821V108.844C97.8821 109.552 98.1347 110.159 98.6399 110.664C99.1399 111.164 99.7467 111.414 100.46 111.414C100.674 111.414 100.859 111.492 101.015 111.648C101.171 111.805 101.249 111.99 101.249 112.203C101.249 112.422 101.171 112.609 101.015 112.766C100.859 112.922 100.674 113 100.46 113C99.3144 113 98.3352 112.594 97.5227 111.781C96.7102 110.969 96.304 109.99 96.304 108.844V102.117C96.304 101.904 96.3821 101.719 96.5383 101.562C96.6894 101.406 96.8743 101.328 97.093 101.328C97.3118 101.328 97.4993 101.406 97.6555 101.562C97.8066 101.719 97.8821 101.904 97.8821 102.117V104.695H100.46C100.674 104.695 100.859 104.771 101.015 104.922C101.171 105.078 101.249 105.266 101.249 105.484C101.249 105.703 101.171 105.888 101.015 106.039C100.859 106.195 100.674 106.273 100.46 106.273ZM110.397 107.352C110.397 107.357 110.397 107.359 110.397 107.359V107.367C110.48 107.565 110.478 107.766 110.389 107.969C110.306 108.172 110.163 108.312 109.96 108.391L105.538 110.164C105.444 110.201 105.348 110.219 105.249 110.219C104.889 110.219 104.644 110.052 104.514 109.719C104.431 109.521 104.434 109.32 104.522 109.117C104.605 108.914 104.749 108.773 104.952 108.695L108.538 107.258C108.017 106.602 107.345 106.273 106.522 106.273C105.809 106.273 105.202 106.526 104.702 107.031C104.197 107.531 103.944 108.135 103.944 108.844C103.944 109.552 104.197 110.159 104.702 110.664C105.202 111.164 105.809 111.414 106.522 111.414C107.355 111.414 108.03 111.083 108.546 110.422C108.681 110.25 108.858 110.151 109.077 110.125C109.29 110.099 109.483 110.154 109.655 110.289C109.827 110.419 109.928 110.594 109.96 110.812C109.986 111.031 109.931 111.227 109.796 111.398C108.962 112.466 107.871 113 106.522 113C105.376 113 104.397 112.594 103.585 111.781C102.772 110.969 102.366 109.99 102.366 108.844C102.366 107.698 102.772 106.719 103.585 105.906C104.397 105.099 105.376 104.695 106.522 104.695C107.371 104.695 108.152 104.938 108.866 105.422C109.579 105.911 110.09 106.555 110.397 107.352ZM113.162 105.898C113.975 105.091 114.954 104.688 116.1 104.688C117.24 104.688 118.217 105.091 119.029 105.898C119.842 106.711 120.248 107.69 120.248 108.836V112.195C120.248 113.341 119.842 114.32 119.029 115.133C118.217 115.945 117.24 116.352 116.1 116.352C114.964 116.352 113.99 115.953 113.178 115.156C113.021 115.005 112.943 114.82 112.943 114.602C112.943 114.383 113.019 114.195 113.17 114.039C113.326 113.883 113.514 113.805 113.732 113.805C113.951 113.799 114.136 113.875 114.287 114.031C114.792 114.526 115.396 114.773 116.1 114.773C116.808 114.773 117.412 114.521 117.912 114.016C118.417 113.516 118.67 112.909 118.67 112.195V108.836C118.67 108.128 118.417 107.523 117.912 107.023C117.412 106.518 116.808 106.266 116.1 106.266C115.386 106.266 114.779 106.518 114.279 107.023C113.774 107.523 113.521 108.128 113.521 108.836C113.521 109.544 113.774 110.151 114.279 110.656C114.779 111.156 115.386 111.406 116.1 111.406C116.475 111.406 116.829 111.331 117.162 111.18C117.365 111.086 117.568 111.078 117.771 111.156C117.975 111.229 118.123 111.365 118.217 111.562C118.305 111.766 118.311 111.969 118.232 112.172C118.159 112.375 118.024 112.523 117.826 112.617C117.279 112.867 116.704 112.992 116.1 112.992C114.954 112.992 113.975 112.586 113.162 111.773C112.35 110.961 111.943 109.982 111.943 108.836C111.943 107.69 112.35 106.711 113.162 105.898ZM126.326 104.695C126.549 104.695 126.771 104.716 126.99 104.758C127.203 104.794 127.372 104.904 127.497 105.086C127.622 105.268 127.664 105.466 127.622 105.68C127.581 105.893 127.471 106.062 127.294 106.188C127.112 106.312 126.914 106.354 126.701 106.312C126.576 106.286 126.451 106.273 126.326 106.273C125.695 106.273 125.156 106.526 124.708 107.031C124.26 107.531 124.034 108.135 124.029 108.844V112.211C124.029 112.43 123.953 112.615 123.802 112.766C123.646 112.922 123.458 113 123.24 113C123.021 113 122.836 112.922 122.685 112.766C122.529 112.615 122.451 112.43 122.451 112.211V105.484C122.451 105.266 122.529 105.081 122.685 104.93C122.836 104.773 123.021 104.695 123.24 104.695C123.458 104.695 123.646 104.773 123.802 104.93C123.953 105.081 124.029 105.266 124.029 105.484V105.5C124.711 104.964 125.477 104.695 126.326 104.695ZM129.583 104.922C129.734 104.771 129.919 104.695 130.137 104.695C130.356 104.695 130.544 104.771 130.7 104.922C130.851 105.078 130.926 105.266 130.926 105.484V112.203C130.926 112.422 130.851 112.609 130.7 112.766C130.544 112.922 130.356 113 130.137 113C129.919 113 129.734 112.922 129.583 112.766C129.426 112.609 129.348 112.422 129.348 112.203V105.484C129.348 105.266 129.426 105.078 129.583 104.922ZM129.505 102.898C129.348 102.747 129.27 102.562 129.27 102.344C129.27 102.125 129.348 101.938 129.505 101.781C129.661 101.63 129.848 101.555 130.067 101.555H130.184C130.403 101.555 130.591 101.63 130.747 101.781C130.903 101.938 130.981 102.125 130.981 102.344C130.981 102.562 130.903 102.747 130.747 102.898C130.591 103.055 130.403 103.133 130.184 103.133H130.067C129.848 103.133 129.661 103.055 129.505 102.898ZM137.738 106.273H135.16V108.844C135.16 109.552 135.413 110.159 135.918 110.664C136.418 111.164 137.025 111.414 137.738 111.414C137.952 111.414 138.137 111.492 138.293 111.648C138.449 111.805 138.527 111.99 138.527 112.203C138.527 112.422 138.449 112.609 138.293 112.766C138.137 112.922 137.952 113 137.738 113C136.593 113 135.613 112.594 134.801 111.781C133.988 110.969 133.582 109.99 133.582 108.844V102.117C133.582 101.904 133.66 101.719 133.816 101.562C133.968 101.406 134.152 101.328 134.371 101.328C134.59 101.328 134.777 101.406 134.934 101.562C135.085 101.719 135.16 101.904 135.16 102.117V104.695H137.738C137.952 104.695 138.137 104.771 138.293 104.922C138.449 105.078 138.527 105.266 138.527 105.484C138.527 105.703 138.449 105.888 138.293 106.039C138.137 106.195 137.952 106.273 137.738 106.273ZM147.785 105.477V112.195C147.785 113.341 147.404 114.32 146.644 115.133C145.889 115.945 144.977 116.352 143.91 116.352C143.264 116.352 142.657 116.19 142.089 115.867C141.522 115.544 141.058 115.096 140.699 114.523C140.584 114.341 140.55 114.143 140.597 113.93C140.644 113.716 140.761 113.552 140.949 113.438C141.131 113.318 141.329 113.281 141.542 113.328C141.756 113.38 141.92 113.497 142.035 113.68C142.493 114.409 143.118 114.773 143.91 114.773C144.54 114.773 145.079 114.521 145.527 114.016C145.975 113.516 146.199 112.911 146.199 112.203V112.18C145.516 112.721 144.753 112.992 143.91 112.992C142.842 112.992 141.928 112.586 141.167 111.773C140.412 110.961 140.035 109.982 140.035 108.836V105.477C140.035 105.258 140.113 105.07 140.269 104.914C140.42 104.763 140.605 104.688 140.824 104.688C141.042 104.688 141.23 104.763 141.386 104.914C141.537 105.07 141.613 105.258 141.613 105.477V108.836C141.613 109.544 141.837 110.151 142.285 110.656C142.738 111.156 143.279 111.406 143.91 111.406C144.54 111.406 145.079 111.156 145.527 110.656C145.975 110.151 146.199 109.544 146.199 108.836V105.477C146.199 105.258 146.277 105.07 146.433 104.914C146.589 104.763 146.777 104.688 146.996 104.688C147.214 104.688 147.399 104.763 147.55 104.914C147.706 105.07 147.785 105.258 147.785 105.477Z" fill="#3A3A3A"/>
<defs>
<filter id="filter0_d_1004_1141" x="0" y="0" width="601.919" height="131" filterUnits="userSpaceOnUse" color-interpolation-filters="sRGB">
<feFlood flood-opacity="0" result="BackgroundImageFix"/>
<feColorMatrix in="SourceAlpha" type="matrix" values="0 0 0 0 0 0 0 0 0 0 0 0 0 0 0 0 0 0 127 0" result="hardAlpha"/>
<feOffset dy="4"/>
<feGaussianBlur stdDeviation="2"/>
<feComposite in2="hardAlpha" operator="out"/>
<feColorMatrix type="matrix" values="0 0 0 0 0 0 0 0 0 0 0 0 0 0 0 0 0 0 0.25 0"/>
<feBlend mode="normal" in2="BackgroundImageFix" result="effect1_dropShadow_1004_1141"/>
<feBlend mode="normal" in="SourceGraphic" in2="effect1_dropShadow_1004_1141" result="shape"/>
</filter>
</defs>
</svg>
