<svg width="200" height="162" viewBox="0 0 200 162" fill="none" xmlns="http://www.w3.org/2000/svg">
<rect width="200" height="162" fill="#D2954D"/>
<path d="M90.765 70.1875C90.4733 70.5625 90.1608 70.9167 89.8275 71.25C96.9525 76.8333 100.515 84.125 100.515 93.125C100.515 100.833 97.7858 107.396 92.3275 112.812C86.9108 118.271 80.3692 121 72.7025 121H38.9525C37.2025 121 35.7233 120.375 34.515 119.125C33.265 117.875 32.64 116.396 32.64 114.688V53.625C32.6817 47.125 34.7442 41.5833 38.8275 37C43.3275 31.9583 49.3067 29.4375 56.765 29.4375H72.7025C80.1608 29.4375 86.1608 31.9792 90.7025 37.0625C94.7858 41.6458 96.8275 47.1875 96.8275 53.6875C96.8275 60.1458 94.8067 65.6458 90.765 70.1875ZM45.265 53.6875V65.3125H72.7025C76.3692 65.3125 79.2233 64.1458 81.265 61.8125C83.1817 59.6458 84.14 56.9375 84.14 53.6875C84.14 50.6042 83.2858 48 81.5775 45.875C79.5358 43.3333 76.5775 42.0625 72.7025 42.0625H56.765C52.89 42.0625 49.9317 43.3333 47.89 45.875C46.1817 47.9583 45.3067 50.5625 45.265 53.6875ZM45.265 108.312H72.7025C76.8692 108.312 80.4317 106.833 83.39 103.875C86.39 100.917 87.89 97.3333 87.89 93.125C87.89 88.9583 86.39 85.3958 83.39 82.4375C80.4317 79.4375 76.8692 77.9375 72.7025 77.9375H45.265V108.312Z" fill="#D93E1C"/>
<path d="M115.048 121C113.298 121 111.798 120.375 110.548 119.125C109.298 117.917 108.673 116.438 108.673 114.688C108.673 112.938 109.298 111.438 110.548 110.188C111.798 108.979 113.298 108.375 115.048 108.375H142.735C147.652 108.375 151.464 107.188 154.173 104.812C156.923 102.438 158.36 99.0833 158.485 94.75C158.61 89.0833 157.277 85.3333 154.485 83.5C152.193 82 147.131 80.9792 139.298 80.4375C130.089 79.8125 123.443 78.375 119.36 76.125C112.193 72.1667 108.631 65.0208 108.673 54.6875C108.756 48.0625 110.86 42.3125 114.985 37.4375C119.485 32.1042 125.214 29.4375 132.173 29.4375H159.11C160.86 29.4375 162.36 30.0625 163.61 31.3125C164.818 32.5208 165.423 34 165.423 35.75C165.423 37.5 164.818 39 163.61 40.25C162.36 41.4583 160.86 42.0625 159.11 42.0625H132.173C128.631 42.0625 125.86 43.5833 123.86 46.625C122.193 49.0417 121.36 51.7708 121.36 54.8125C121.318 59.9375 122.652 63.3333 125.36 65C127.61 66.3333 132.548 67.2708 140.173 67.8125C149.589 68.4792 156.381 70 160.548 72.375C167.839 76.5417 171.36 84.1042 171.11 95.0625C170.943 102.812 168.256 109.083 163.048 113.875C157.839 118.625 151.068 121 142.735 121H115.048Z" fill="white"/>
<path d="M54.2395 129.19C54.3716 129.054 54.5334 128.985 54.7248 128.985C54.9162 128.985 55.0803 129.054 55.217 129.19C55.3537 129.323 55.4221 129.484 55.4221 129.676V134.912C55.4221 136.038 55.0484 137.002 54.301 137.804C53.5581 138.601 52.6626 139 51.6145 139C50.5526 139 49.6503 138.594 48.9074 137.783C48.1783 136.986 47.8137 136.029 47.8137 134.912V129.676C47.8137 129.484 47.882 129.323 48.0187 129.19C48.1509 129.054 48.3127 128.985 48.5041 128.985C48.6955 128.985 48.8596 129.054 48.9963 129.19C49.1284 129.323 49.1945 129.484 49.1945 129.676V134.912C49.1945 135.669 49.4383 136.313 49.926 136.847C50.3954 137.357 50.9582 137.612 51.6145 137.612C52.2844 137.612 52.854 137.348 53.3234 136.819C53.7974 136.295 54.0344 135.66 54.0344 134.912V129.676C54.0344 129.484 54.1027 129.323 54.2395 129.19ZM57.7225 132.793C58.4334 132.087 59.2902 131.733 60.2928 131.733C61.2909 131.733 62.1454 132.087 62.8563 132.793C63.5672 133.504 63.9227 134.361 63.9227 135.363C63.9227 136.366 63.5672 137.223 62.8563 137.934C62.1454 138.645 61.2909 139 60.2928 139C59.7323 139 59.2036 138.879 58.7069 138.638C58.5337 138.551 58.4152 138.419 58.3514 138.241C58.2922 138.059 58.3036 137.881 58.3856 137.708C58.4676 137.539 58.5998 137.423 58.7821 137.359C58.9598 137.296 59.1353 137.305 59.3084 137.387C59.6183 137.537 59.9465 137.612 60.2928 137.612C60.9126 137.612 61.4412 137.394 61.8787 136.956C62.3208 136.514 62.5418 135.983 62.5418 135.363C62.5418 134.743 62.3208 134.215 61.8787 133.777C61.4412 133.335 60.9126 133.114 60.2928 133.114C59.6685 133.114 59.1375 133.335 58.7 133.777C58.258 134.215 58.037 134.743 58.037 135.363V141.051C58.037 141.242 57.9709 141.406 57.8387 141.543C57.702 141.675 57.5379 141.741 57.3465 141.741C57.1551 141.741 56.9933 141.675 56.8612 141.543C56.7245 141.406 56.6561 141.242 56.6561 141.051V135.363C56.6561 134.361 57.0116 133.504 57.7225 132.793ZM66.2641 132.438C66.8611 131.968 67.5311 131.733 68.2739 131.733C69.2081 131.733 70.0057 132.087 70.6665 132.793C71.3318 133.504 71.6645 134.361 71.6645 135.363V138.303C71.6645 138.494 71.5962 138.658 71.4595 138.795C71.3273 138.932 71.1655 139 70.9741 139C70.7827 139 70.6186 138.932 70.4819 138.795C70.3452 138.658 70.2768 138.494 70.2768 138.303V135.363C70.2768 134.743 70.0809 134.215 69.6889 133.777C69.297 133.335 68.8253 133.114 68.2739 133.114C67.7225 133.114 67.2508 133.333 66.8589 133.771C66.4624 134.213 66.2641 134.743 66.2641 135.363V138.303C66.2641 138.494 66.1981 138.658 66.0659 138.795C65.9292 138.932 65.7651 139 65.5737 139C65.3823 139 65.2205 138.932 65.0884 138.795C64.9516 138.658 64.8833 138.494 64.8833 138.303V129.676C64.8833 129.484 64.9516 129.323 65.0884 129.19C65.2205 129.054 65.3823 128.985 65.5737 128.985C65.7651 128.985 65.9292 129.054 66.0659 129.19C66.1981 129.323 66.2641 129.484 66.2641 129.676V132.438ZM73.4796 132.793C74.1905 132.087 75.0473 131.733 76.0499 131.733C77.048 131.733 77.9025 132.087 78.6134 132.793C79.3243 133.504 79.6798 134.361 79.6798 135.363C79.6798 136.366 79.3243 137.223 78.6134 137.934C77.9025 138.645 77.048 139 76.0499 139C75.0473 139 74.1905 138.645 73.4796 137.934C72.7687 137.223 72.4132 136.366 72.4132 135.363C72.4132 134.361 72.7687 133.504 73.4796 132.793ZM74.4571 136.956C74.8946 137.394 75.4256 137.612 76.0499 137.612C76.6697 137.612 77.1984 137.394 77.6359 136.956C78.0779 136.514 78.2989 135.983 78.2989 135.363C78.2989 134.743 78.0779 134.215 77.6359 133.777C77.1984 133.335 76.6697 133.114 76.0499 133.114C75.4256 133.114 74.8946 133.335 74.4571 133.777C74.0151 134.215 73.7941 134.743 73.7941 135.363C73.7941 135.983 74.0151 136.514 74.4571 136.956ZM81.0505 129.19C81.1827 129.054 81.3445 128.985 81.5359 128.985C81.7273 128.985 81.8914 129.054 82.0281 129.19C82.1602 129.323 82.2263 129.484 82.2263 129.676V138.303C82.2263 138.494 82.1602 138.658 82.0281 138.795C81.8914 138.932 81.7273 139 81.5359 139C81.3445 139 81.1827 138.932 81.0505 138.795C80.9138 138.658 80.8455 138.494 80.8455 138.303V129.676C80.8455 129.484 80.9138 129.323 81.0505 129.19ZM89.4008 129.19C89.5375 129.054 89.7016 128.985 89.893 128.985C90.0844 128.985 90.2462 129.054 90.3783 129.19C90.515 129.323 90.5834 129.484 90.5834 129.676V135.363C90.5834 136.366 90.2279 137.223 89.517 137.934C88.8061 138.645 87.9516 139 86.9535 139C85.9509 139 85.0941 138.645 84.3832 137.934C83.6723 137.223 83.3168 136.366 83.3168 135.363C83.3168 134.361 83.6723 133.504 84.3832 132.793C85.0941 132.087 85.9509 131.733 86.9535 131.733C87.4867 131.733 87.9949 131.845 88.4779 132.068C88.6511 132.15 88.7719 132.28 88.8402 132.458C88.904 132.636 88.8949 132.811 88.8129 132.984C88.7354 133.158 88.6055 133.278 88.4232 133.347C88.2455 133.41 88.0701 133.401 87.8969 133.319C87.5961 133.183 87.2816 133.114 86.9535 133.114C86.3292 133.114 85.7982 133.335 85.3607 133.777C84.9187 134.215 84.6977 134.743 84.6977 135.363C84.6977 135.983 84.9187 136.514 85.3607 136.956C85.7982 137.394 86.3292 137.612 86.9535 137.612C87.5733 137.612 88.102 137.394 88.5395 136.956C88.9815 136.514 89.2025 135.983 89.2025 135.363V129.676C89.2025 129.484 89.2686 129.323 89.4008 129.19ZM95.5192 129.19C95.6514 129.054 95.8132 128.985 96.0046 128.985C96.196 128.985 96.36 129.054 96.4968 129.19C96.6289 129.323 96.695 129.484 96.695 129.676V138.303C96.695 138.494 96.6289 138.658 96.4968 138.795C96.36 138.932 96.196 139 96.0046 139C95.8132 139 95.6514 138.932 95.5192 138.795C95.3825 138.658 95.3141 138.494 95.3141 138.303V129.676C95.3141 129.484 95.3825 129.323 95.5192 129.19ZM99.5081 132.438C100.105 131.968 100.775 131.733 101.518 131.733C102.452 131.733 103.25 132.087 103.91 132.793C104.576 133.504 104.909 134.361 104.909 135.363V138.303C104.909 138.494 104.84 138.658 104.703 138.795C104.571 138.932 104.409 139 104.218 139C104.027 139 103.863 138.932 103.726 138.795C103.589 138.658 103.521 138.494 103.521 138.303V135.363C103.521 134.743 103.325 134.215 102.933 133.777C102.541 133.335 102.069 133.114 101.518 133.114C100.966 133.114 100.495 133.333 100.103 133.771C99.7064 134.213 99.5081 134.743 99.5081 135.363V138.303C99.5081 138.494 99.442 138.658 99.3099 138.795C99.1732 138.932 99.0091 139 98.8177 139C98.6263 139 98.4645 138.932 98.3323 138.795C98.1956 138.658 98.1273 138.494 98.1273 138.303V132.424C98.1273 132.232 98.1956 132.068 98.3323 131.932C98.4645 131.799 98.6263 131.733 98.8177 131.733C99.0091 131.733 99.1732 131.799 99.3099 131.932C99.442 132.068 99.5081 132.232 99.5081 132.424V132.438ZM109.978 133.114H107.722V135.363C107.722 135.983 107.943 136.514 108.385 136.956C108.822 137.394 109.353 137.612 109.978 137.612C110.164 137.612 110.326 137.681 110.463 137.817C110.6 137.954 110.668 138.116 110.668 138.303C110.668 138.494 110.6 138.658 110.463 138.795C110.326 138.932 110.164 139 109.978 139C108.975 139 108.118 138.645 107.407 137.934C106.696 137.223 106.341 136.366 106.341 135.363V129.478C106.341 129.291 106.409 129.129 106.546 128.992C106.678 128.855 106.84 128.787 107.031 128.787C107.223 128.787 107.387 128.855 107.523 128.992C107.656 129.129 107.722 129.291 107.722 129.478V131.733H109.978C110.164 131.733 110.326 131.799 110.463 131.932C110.6 132.068 110.668 132.232 110.668 132.424C110.668 132.615 110.6 132.777 110.463 132.909C110.326 133.046 110.164 133.114 109.978 133.114ZM117.972 134.058C117.972 134.062 117.972 134.064 117.972 134.064V134.071C118.045 134.244 118.043 134.42 117.965 134.598C117.893 134.775 117.767 134.898 117.589 134.967L113.72 136.519C113.638 136.55 113.554 136.566 113.467 136.566C113.153 136.566 112.939 136.421 112.825 136.129C112.752 135.956 112.754 135.78 112.832 135.603C112.905 135.425 113.03 135.302 113.208 135.233L116.345 133.976C115.89 133.401 115.302 133.114 114.582 133.114C113.957 133.114 113.426 133.335 112.989 133.777C112.547 134.215 112.326 134.743 112.326 135.363C112.326 135.983 112.547 136.514 112.989 136.956C113.426 137.394 113.957 137.612 114.582 137.612C115.311 137.612 115.901 137.323 116.352 136.744C116.471 136.594 116.626 136.507 116.817 136.484C117.004 136.462 117.172 136.509 117.323 136.628C117.473 136.742 117.562 136.895 117.589 137.086C117.612 137.277 117.564 137.448 117.446 137.599C116.717 138.533 115.762 139 114.582 139C113.579 139 112.722 138.645 112.011 137.934C111.3 137.223 110.945 136.366 110.945 135.363C110.945 134.361 111.3 133.504 112.011 132.793C112.722 132.087 113.579 131.733 114.582 131.733C115.324 131.733 116.008 131.945 116.632 132.369C117.257 132.798 117.703 133.36 117.972 134.058ZM119.692 132.786C120.403 132.08 121.259 131.727 122.262 131.727C123.26 131.727 124.114 132.08 124.825 132.786C125.536 133.497 125.892 134.354 125.892 135.356V138.296C125.892 139.299 125.536 140.155 124.825 140.866C124.114 141.577 123.26 141.933 122.262 141.933C121.268 141.933 120.416 141.584 119.705 140.887C119.569 140.755 119.5 140.593 119.5 140.401C119.5 140.21 119.566 140.046 119.698 139.909C119.835 139.772 119.999 139.704 120.191 139.704C120.382 139.7 120.544 139.766 120.676 139.902C121.118 140.335 121.647 140.552 122.262 140.552C122.882 140.552 123.41 140.331 123.848 139.889C124.29 139.451 124.511 138.92 124.511 138.296V135.356C124.511 134.737 124.29 134.208 123.848 133.771C123.41 133.328 122.882 133.107 122.262 133.107C121.638 133.107 121.107 133.328 120.669 133.771C120.227 134.208 120.006 134.737 120.006 135.356C120.006 135.976 120.227 136.507 120.669 136.949C121.107 137.387 121.638 137.605 122.262 137.605C122.59 137.605 122.9 137.539 123.192 137.407C123.369 137.325 123.547 137.318 123.725 137.387C123.903 137.451 124.032 137.569 124.114 137.742C124.192 137.92 124.197 138.098 124.128 138.275C124.064 138.453 123.946 138.583 123.773 138.665C123.294 138.884 122.791 138.993 122.262 138.993C121.259 138.993 120.403 138.638 119.692 137.927C118.981 137.216 118.625 136.359 118.625 135.356C118.625 134.354 118.981 133.497 119.692 132.786ZM130.51 131.733C130.706 131.733 130.899 131.752 131.091 131.788C131.278 131.82 131.426 131.916 131.535 132.075C131.644 132.235 131.681 132.408 131.644 132.595C131.608 132.782 131.512 132.93 131.357 133.039C131.198 133.148 131.025 133.185 130.838 133.148C130.728 133.126 130.619 133.114 130.51 133.114C129.958 133.114 129.487 133.335 129.095 133.777C128.703 134.215 128.504 134.743 128.5 135.363V138.31C128.5 138.501 128.434 138.663 128.302 138.795C128.165 138.932 128.001 139 127.809 139C127.618 139 127.456 138.932 127.324 138.795C127.187 138.663 127.119 138.501 127.119 138.31V132.424C127.119 132.232 127.187 132.071 127.324 131.938C127.456 131.802 127.618 131.733 127.809 131.733C128.001 131.733 128.165 131.802 128.302 131.938C128.434 132.071 128.5 132.232 128.5 132.424V132.438C129.097 131.968 129.767 131.733 130.51 131.733ZM132.66 131.932C132.792 131.799 132.954 131.733 133.145 131.733C133.336 131.733 133.501 131.799 133.637 131.932C133.769 132.068 133.835 132.232 133.835 132.424V138.303C133.835 138.494 133.769 138.658 133.637 138.795C133.501 138.932 133.336 139 133.145 139C132.954 139 132.792 138.932 132.66 138.795C132.523 138.658 132.455 138.494 132.455 138.303V132.424C132.455 132.232 132.523 132.068 132.66 131.932ZM132.591 130.161C132.455 130.029 132.386 129.867 132.386 129.676C132.386 129.484 132.455 129.32 132.591 129.184C132.728 129.051 132.892 128.985 133.084 128.985H133.186C133.377 128.985 133.542 129.051 133.678 129.184C133.815 129.32 133.883 129.484 133.883 129.676C133.883 129.867 133.815 130.029 133.678 130.161C133.542 130.298 133.377 130.366 133.186 130.366H133.084C132.892 130.366 132.728 130.298 132.591 130.161ZM139.096 133.114H136.84V135.363C136.84 135.983 137.061 136.514 137.503 136.956C137.941 137.394 138.472 137.612 139.096 137.612C139.283 137.612 139.444 137.681 139.581 137.817C139.718 137.954 139.786 138.116 139.786 138.303C139.786 138.494 139.718 138.658 139.581 138.795C139.444 138.932 139.283 139 139.096 139C138.093 139 137.236 138.645 136.526 137.934C135.815 137.223 135.459 136.366 135.459 135.363V129.478C135.459 129.291 135.527 129.129 135.664 128.992C135.796 128.855 135.958 128.787 136.15 128.787C136.341 128.787 136.505 128.855 136.642 128.992C136.774 129.129 136.84 129.291 136.84 129.478V131.733H139.096C139.283 131.733 139.444 131.799 139.581 131.932C139.718 132.068 139.786 132.232 139.786 132.424C139.786 132.615 139.718 132.777 139.581 132.909C139.444 133.046 139.283 133.114 139.096 133.114ZM147.186 132.417V138.296C147.186 139.299 146.854 140.155 146.188 140.866C145.527 141.577 144.73 141.933 143.796 141.933C143.231 141.933 142.7 141.791 142.203 141.509C141.706 141.226 141.301 140.834 140.986 140.333C140.886 140.174 140.856 140 140.897 139.813C140.938 139.627 141.041 139.483 141.205 139.383C141.364 139.278 141.538 139.246 141.724 139.287C141.911 139.333 142.055 139.435 142.155 139.595C142.556 140.233 143.103 140.552 143.796 140.552C144.347 140.552 144.819 140.331 145.211 139.889C145.603 139.451 145.799 138.923 145.799 138.303V138.282C145.202 138.756 144.534 138.993 143.796 138.993C142.861 138.993 142.062 138.638 141.396 137.927C140.735 137.216 140.405 136.359 140.405 135.356V132.417C140.405 132.226 140.473 132.062 140.61 131.925C140.742 131.793 140.904 131.727 141.096 131.727C141.287 131.727 141.451 131.793 141.588 131.925C141.72 132.062 141.786 132.226 141.786 132.417V135.356C141.786 135.976 141.982 136.507 142.374 136.949C142.77 137.387 143.244 137.605 143.796 137.605C144.347 137.605 144.819 137.387 145.211 136.949C145.603 136.507 145.799 135.976 145.799 135.356V132.417C145.799 132.226 145.867 132.062 146.004 131.925C146.14 131.793 146.304 131.727 146.496 131.727C146.687 131.727 146.849 131.793 146.981 131.925C147.118 132.062 147.186 132.226 147.186 132.417Z" fill="#3A3A3A"/>
</svg>
