<svg width="249" height="168" viewBox="0 0 249 168" fill="none" xmlns="http://www.w3.org/2000/svg">
<rect y="0.72522" width="249" height="135.181" fill="#D2954D"/>
<mask id="path-2-inside-1_1004_1141" fill="white">
<path d="M0 135.906H249V168H0V135.906Z"/>
</mask>
<path d="M0 135.906H249V168H0V135.906Z" fill="white"/>
<path d="M249 168V169H250V168H249ZM0 168H-1V169H0V168ZM248 135.906V168H250V135.906H248ZM249 167H0V169H249V167ZM1 168V135.906H-1V168H1Z" fill="#D2954D" mask="url(#path-2-inside-1_1004_1141)"/>
<path d="M12.5788 159.714L7.85883 153.514V159.714H4.43883V145.674H7.85883V151.834L12.5388 145.674H16.5588L11.1188 152.554L16.7588 159.714H12.5788ZM27.9841 145.674V155.234C27.9841 156.714 27.5641 157.854 26.7241 158.654C25.8975 159.454 24.7775 159.854 23.3641 159.854C21.8841 159.854 20.6975 159.434 19.8041 158.594C18.9108 157.754 18.4641 156.561 18.4641 155.014H21.8641C21.8641 155.601 21.9841 156.048 22.2241 156.354C22.4641 156.648 22.8108 156.794 23.2641 156.794C23.6775 156.794 23.9975 156.661 24.2241 156.394C24.4508 156.128 24.5641 155.741 24.5641 155.234V145.674H27.9841ZM40.2866 157.234H35.0466L34.2066 159.714H30.6266L35.7066 145.674H39.6666L44.7466 159.714H41.1266L40.2866 157.234ZM39.4066 154.594L37.6666 149.454L35.9466 154.594H39.4066ZM60.631 152.514C61.4444 152.688 62.0977 153.094 62.591 153.734C63.0844 154.361 63.331 155.081 63.331 155.894C63.331 157.068 62.9177 158.001 62.091 158.694C61.2777 159.374 60.1377 159.714 58.671 159.714H52.131V145.674H58.451C59.8777 145.674 60.991 146.001 61.791 146.654C62.6044 147.308 63.011 148.194 63.011 149.314C63.011 150.141 62.791 150.828 62.351 151.374C61.9244 151.921 61.351 152.301 60.631 152.514ZM55.551 151.354H57.791C58.351 151.354 58.7777 151.234 59.071 150.994C59.3777 150.741 59.531 150.374 59.531 149.894C59.531 149.414 59.3777 149.048 59.071 148.794C58.7777 148.541 58.351 148.414 57.791 148.414H55.551V151.354ZM58.071 156.954C58.6444 156.954 59.0844 156.828 59.391 156.574C59.711 156.308 59.871 155.928 59.871 155.434C59.871 154.941 59.7044 154.554 59.371 154.274C59.051 153.994 58.6044 153.854 58.031 153.854H55.551V156.954H58.071ZM74.8546 157.234H69.6146L68.7746 159.714H65.1946L70.2746 145.674H74.2346L79.3146 159.714H75.6946L74.8546 157.234ZM73.9746 154.594L72.2346 149.454L70.5146 154.594H73.9746ZM86.7407 159.854C85.714 159.854 84.794 159.688 83.9807 159.354C83.1674 159.021 82.514 158.528 82.0207 157.874C81.5407 157.221 81.2874 156.434 81.2607 155.514H84.9007C84.954 156.034 85.134 156.434 85.4407 156.714C85.7474 156.981 86.1474 157.114 86.6407 157.114C87.1474 157.114 87.5474 157.001 87.8407 156.774C88.134 156.534 88.2807 156.208 88.2807 155.794C88.2807 155.448 88.1607 155.161 87.9207 154.934C87.694 154.708 87.4074 154.521 87.0607 154.374C86.7274 154.228 86.2474 154.061 85.6207 153.874C84.714 153.594 83.974 153.314 83.4007 153.034C82.8274 152.754 82.334 152.341 81.9207 151.794C81.5074 151.248 81.3007 150.534 81.3007 149.654C81.3007 148.348 81.774 147.328 82.7207 146.594C83.6674 145.848 84.9007 145.474 86.4207 145.474C87.9674 145.474 89.214 145.848 90.1607 146.594C91.1074 147.328 91.614 148.354 91.6807 149.674H87.9807C87.954 149.221 87.7874 148.868 87.4807 148.614C87.174 148.348 86.7807 148.214 86.3007 148.214C85.8874 148.214 85.554 148.328 85.3007 148.554C85.0474 148.768 84.9207 149.081 84.9207 149.494C84.9207 149.948 85.134 150.301 85.5607 150.554C85.9874 150.808 86.654 151.081 87.5607 151.374C88.4674 151.681 89.2007 151.974 89.7607 152.254C90.334 152.534 90.8274 152.941 91.2407 153.474C91.654 154.008 91.8607 154.694 91.8607 155.534C91.8607 156.334 91.654 157.061 91.2407 157.714C90.8407 158.368 90.254 158.888 89.4807 159.274C88.7074 159.661 87.794 159.854 86.7407 159.854ZM103.505 157.234H98.2654L97.4254 159.714H93.8454L98.9254 145.674H102.885L107.965 159.714H104.345L103.505 157.234ZM102.625 154.594L100.885 149.454L99.1654 154.594H102.625ZM113.671 145.674V154.074C113.671 154.914 113.878 155.561 114.291 156.014C114.705 156.468 115.311 156.694 116.111 156.694C116.911 156.694 117.525 156.468 117.951 156.014C118.378 155.561 118.591 154.914 118.591 154.074V145.674H122.011V154.054C122.011 155.308 121.745 156.368 121.211 157.234C120.678 158.101 119.958 158.754 119.051 159.194C118.158 159.634 117.158 159.854 116.051 159.854C114.945 159.854 113.951 159.641 113.071 159.214C112.205 158.774 111.518 158.121 111.011 157.254C110.505 156.374 110.251 155.308 110.251 154.054V145.674H113.671ZM128.633 157.074H133.113V159.714H125.213V145.674H128.633V157.074ZM138.964 145.674V159.714H135.544V145.674H138.964ZM152.361 159.854C151.334 159.854 150.414 159.688 149.601 159.354C148.788 159.021 148.134 158.528 147.641 157.874C147.161 157.221 146.908 156.434 146.881 155.514H150.521C150.574 156.034 150.754 156.434 151.061 156.714C151.368 156.981 151.768 157.114 152.261 157.114C152.768 157.114 153.168 157.001 153.461 156.774C153.754 156.534 153.901 156.208 153.901 155.794C153.901 155.448 153.781 155.161 153.541 154.934C153.314 154.708 153.028 154.521 152.681 154.374C152.348 154.228 151.868 154.061 151.241 153.874C150.334 153.594 149.594 153.314 149.021 153.034C148.448 152.754 147.954 152.341 147.541 151.794C147.128 151.248 146.921 150.534 146.921 149.654C146.921 148.348 147.394 147.328 148.341 146.594C149.288 145.848 150.521 145.474 152.041 145.474C153.588 145.474 154.834 145.848 155.781 146.594C156.728 147.328 157.234 148.354 157.301 149.674H153.601C153.574 149.221 153.408 148.868 153.101 148.614C152.794 148.348 152.401 148.214 151.921 148.214C151.508 148.214 151.174 148.328 150.921 148.554C150.668 148.768 150.541 149.081 150.541 149.494C150.541 149.948 150.754 150.301 151.181 150.554C151.608 150.808 152.274 151.081 153.181 151.374C154.088 151.681 154.821 151.974 155.381 152.254C155.954 152.534 156.448 152.941 156.861 153.474C157.274 154.008 157.481 154.694 157.481 155.534C157.481 156.334 157.274 157.061 156.861 157.714C156.461 158.368 155.874 158.888 155.101 159.274C154.328 159.661 153.414 159.854 152.361 159.854ZM163.806 145.674V159.714H160.386V145.674H163.806ZM175.824 157.234H170.584L169.744 159.714H166.164L171.244 145.674H175.204L180.284 159.714H176.664L175.824 157.234ZM174.944 154.594L173.204 149.454L171.484 154.594H174.944ZM195.19 159.714H191.77L186.05 151.054V159.714H182.63V145.674H186.05L191.77 154.374V145.674H195.19V159.714ZM201.889 145.674V159.714H198.469V145.674H201.889ZM215.868 150.194C215.868 151.008 215.681 151.754 215.308 152.434C214.934 153.101 214.361 153.641 213.588 154.054C212.814 154.468 211.854 154.674 210.708 154.674H208.588V159.714H205.168V145.674H210.708C211.828 145.674 212.774 145.868 213.548 146.254C214.321 146.641 214.901 147.174 215.288 147.854C215.674 148.534 215.868 149.314 215.868 150.194ZM210.448 151.954C211.101 151.954 211.588 151.801 211.908 151.494C212.228 151.188 212.388 150.754 212.388 150.194C212.388 149.634 212.228 149.201 211.908 148.894C211.588 148.588 211.101 148.434 210.448 148.434H208.588V151.954H210.448ZM227.188 157.234H221.948L221.108 159.714H217.528L222.608 145.674H226.568L231.648 159.714H228.028L227.188 157.234ZM226.308 154.594L224.568 149.454L222.848 154.594H226.308ZM241.154 159.714L238.234 154.414H237.414V159.714H233.994V145.674H239.734C240.841 145.674 241.781 145.868 242.554 146.254C243.341 146.641 243.928 147.174 244.314 147.854C244.701 148.521 244.894 149.268 244.894 150.094C244.894 151.028 244.628 151.861 244.094 152.594C243.574 153.328 242.801 153.848 241.774 154.154L245.014 159.714H241.154ZM237.414 151.994H239.534C240.161 151.994 240.628 151.841 240.934 151.534C241.254 151.228 241.414 150.794 241.414 150.234C241.414 149.701 241.254 149.281 240.934 148.974C240.628 148.668 240.161 148.514 239.534 148.514H237.414V151.994Z" fill="#3A3A3A"/>
<path d="M114.157 53.0117C113.847 53.4102 113.515 53.7865 113.16 54.1406C120.731 60.0729 124.516 67.8203 124.516 77.3828C124.516 85.5729 121.616 92.5456 115.817 98.3008C110.062 104.1 103.111 107 94.9652 107H59.1058C57.2464 107 55.6748 106.336 54.3909 105.008C53.0628 103.68 52.3988 102.108 52.3988 100.293V35.4141C52.443 28.5078 54.6344 22.6198 58.973 17.75C63.7542 12.3932 70.1071 9.71484 78.0316 9.71484H94.9652C102.89 9.71484 109.265 12.4154 114.09 17.8164C118.429 22.6862 120.598 28.5742 120.598 35.4805C120.598 42.3424 118.451 48.1862 114.157 53.0117ZM65.8128 35.4805V47.832H94.9652C98.861 47.832 101.894 46.5924 104.063 44.1133C106.099 41.8112 107.118 38.9336 107.118 35.4805C107.118 32.2044 106.21 29.4375 104.395 27.1797C102.226 24.4792 99.0823 23.1289 94.9652 23.1289H78.0316C73.9144 23.1289 70.7711 24.4792 68.6019 27.1797C66.7868 29.3932 65.8571 32.1602 65.8128 35.4805ZM65.8128 93.5195H94.9652C99.3922 93.5195 103.177 91.9479 106.321 88.8047C109.508 85.6615 111.102 81.8542 111.102 77.3828C111.102 72.9557 109.508 69.1706 106.321 66.0273C103.177 62.8398 99.3922 61.2461 94.9652 61.2461H65.8128V93.5195Z" fill="#D93E1C"/>
<path d="M139.957 107C138.097 107 136.504 106.336 135.175 105.008C133.847 103.724 133.183 102.152 133.183 100.293C133.183 98.4336 133.847 96.8398 135.175 95.5117C136.504 94.2279 138.097 93.5859 139.957 93.5859H169.375C174.599 93.5859 178.649 92.3242 181.527 89.8008C184.449 87.2773 185.976 83.7135 186.109 79.1094C186.242 73.0885 184.825 69.1042 181.859 67.1562C179.424 65.5625 174.045 64.4779 165.722 63.9023C155.938 63.2383 148.877 61.7109 144.539 59.3203C136.924 55.1146 133.139 47.5221 133.183 36.543C133.272 29.5039 135.507 23.3945 139.89 18.2148C144.672 12.5482 150.759 9.71484 158.152 9.71484H186.773C188.632 9.71484 190.226 10.3789 191.554 11.707C192.838 12.9909 193.48 14.5625 193.48 16.4219C193.48 18.2812 192.838 19.875 191.554 21.2031C190.226 22.487 188.632 23.1289 186.773 23.1289H158.152C154.389 23.1289 151.445 24.7448 149.32 27.9766C147.549 30.5443 146.664 33.444 146.664 36.6758C146.619 42.1211 148.036 45.7292 150.914 47.5C153.304 48.9167 158.55 49.9128 166.652 50.4883C176.657 51.1966 183.873 52.8125 188.3 55.3359C196.048 59.763 199.789 67.7982 199.523 79.4414C199.346 87.6758 196.491 94.3385 190.957 99.4297C185.423 104.477 178.229 107 169.375 107H139.957Z" fill="white"/>
<path d="M68.5594 114.789C68.7104 114.633 68.8953 114.555 69.1141 114.555C69.3328 114.555 69.5203 114.633 69.6766 114.789C69.8328 114.94 69.9109 115.125 69.9109 115.344V121.328C69.9109 122.615 69.4839 123.716 68.6297 124.633C67.7807 125.544 66.7573 126 65.5594 126C64.3458 126 63.3146 125.536 62.4656 124.609C61.6323 123.698 61.2156 122.604 61.2156 121.328V115.344C61.2156 115.125 61.2938 114.94 61.45 114.789C61.601 114.633 61.7859 114.555 62.0047 114.555C62.2234 114.555 62.4109 114.633 62.5672 114.789C62.7182 114.94 62.7938 115.125 62.7938 115.344V121.328C62.7938 122.193 63.0724 122.93 63.6297 123.539C64.1661 124.122 64.8094 124.414 65.5594 124.414C66.325 124.414 66.976 124.112 67.5125 123.508C68.0542 122.909 68.325 122.182 68.325 121.328V115.344C68.325 115.125 68.4031 114.94 68.5594 114.789ZM73.34 118.906C74.1525 118.099 75.1317 117.695 76.2775 117.695C77.4181 117.695 78.3947 118.099 79.2072 118.906C80.0197 119.719 80.4259 120.698 80.4259 121.844C80.4259 122.99 80.0197 123.969 79.2072 124.781C78.3947 125.594 77.4181 126 76.2775 126C75.6369 126 75.0327 125.862 74.465 125.586C74.2671 125.487 74.1317 125.336 74.0588 125.133C73.991 124.924 74.0041 124.721 74.0978 124.523C74.1916 124.331 74.3426 124.198 74.5509 124.125C74.7541 124.052 74.9546 124.062 75.1525 124.156C75.5067 124.328 75.8817 124.414 76.2775 124.414C76.9858 124.414 77.59 124.164 78.09 123.664C78.5952 123.159 78.8478 122.552 78.8478 121.844C78.8478 121.135 78.5952 120.531 78.09 120.031C77.59 119.526 76.9858 119.273 76.2775 119.273C75.564 119.273 74.9572 119.526 74.4572 120.031C73.952 120.531 73.6994 121.135 73.6994 121.844V128.344C73.6994 128.562 73.6239 128.75 73.4728 128.906C73.3166 129.057 73.1291 129.133 72.9103 129.133C72.6916 129.133 72.5067 129.057 72.3556 128.906C72.1994 128.75 72.1213 128.562 72.1213 128.344V121.844C72.1213 120.698 72.5275 119.719 73.34 118.906ZM83.9019 118.5C84.5842 117.964 85.3498 117.695 86.1988 117.695C87.2665 117.695 88.1779 118.099 88.9331 118.906C89.6935 119.719 90.0738 120.698 90.0738 121.844V125.203C90.0738 125.422 89.9956 125.609 89.8394 125.766C89.6883 125.922 89.5034 126 89.2847 126C89.0659 126 88.8784 125.922 88.7222 125.766C88.5659 125.609 88.4878 125.422 88.4878 125.203V121.844C88.4878 121.135 88.2639 120.531 87.8159 120.031C87.368 119.526 86.829 119.273 86.1988 119.273C85.5685 119.273 85.0295 119.523 84.5816 120.023C84.1284 120.529 83.9019 121.135 83.9019 121.844V125.203C83.9019 125.422 83.8264 125.609 83.6753 125.766C83.5191 125.922 83.3316 126 83.1128 126C82.8941 126 82.7092 125.922 82.5581 125.766C82.4019 125.609 82.3238 125.422 82.3238 125.203V115.344C82.3238 115.125 82.4019 114.94 82.5581 114.789C82.7092 114.633 82.8941 114.555 83.1128 114.555C83.3316 114.555 83.5191 114.633 83.6753 114.789C83.8264 114.94 83.9019 115.125 83.9019 115.344V118.5ZM92.9481 118.906C93.7606 118.099 94.7398 117.695 95.8856 117.695C97.0263 117.695 98.0028 118.099 98.8153 118.906C99.6278 119.719 100.034 120.698 100.034 121.844C100.034 122.99 99.6278 123.969 98.8153 124.781C98.0028 125.594 97.0263 126 95.8856 126C94.7398 126 93.7606 125.594 92.9481 124.781C92.1356 123.969 91.7294 122.99 91.7294 121.844C91.7294 120.698 92.1356 119.719 92.9481 118.906ZM94.0653 123.664C94.5653 124.164 95.1721 124.414 95.8856 124.414C96.594 124.414 97.1981 124.164 97.6981 123.664C98.2033 123.159 98.4559 122.552 98.4559 121.844C98.4559 121.135 98.2033 120.531 97.6981 120.031C97.1981 119.526 96.594 119.273 95.8856 119.273C95.1721 119.273 94.5653 119.526 94.0653 120.031C93.5601 120.531 93.3075 121.135 93.3075 121.844C93.3075 122.552 93.5601 123.159 94.0653 123.664ZM102.401 114.789C102.552 114.633 102.737 114.555 102.955 114.555C103.174 114.555 103.362 114.633 103.518 114.789C103.669 114.94 103.744 115.125 103.744 115.344V125.203C103.744 125.422 103.669 125.609 103.518 125.766C103.362 125.922 103.174 126 102.955 126C102.737 126 102.552 125.922 102.401 125.766C102.244 125.609 102.166 125.422 102.166 125.203V115.344C102.166 115.125 102.244 114.94 102.401 114.789ZM112.744 114.789C112.9 114.633 113.088 114.555 113.306 114.555C113.525 114.555 113.71 114.633 113.861 114.789C114.017 114.94 114.095 115.125 114.095 115.344V121.844C114.095 122.99 113.689 123.969 112.877 124.781C112.064 125.594 111.088 126 109.947 126C108.801 126 107.822 125.594 107.009 124.781C106.197 123.969 105.791 122.99 105.791 121.844C105.791 120.698 106.197 119.719 107.009 118.906C107.822 118.099 108.801 117.695 109.947 117.695C110.556 117.695 111.137 117.823 111.689 118.078C111.887 118.172 112.025 118.32 112.103 118.523C112.176 118.727 112.166 118.927 112.072 119.125C111.983 119.323 111.835 119.461 111.627 119.539C111.423 119.612 111.223 119.602 111.025 119.508C110.681 119.352 110.322 119.273 109.947 119.273C109.233 119.273 108.627 119.526 108.127 120.031C107.621 120.531 107.369 121.135 107.369 121.844C107.369 122.552 107.621 123.159 108.127 123.664C108.627 124.164 109.233 124.414 109.947 124.414C110.655 124.414 111.259 124.164 111.759 123.664C112.265 123.159 112.517 122.552 112.517 121.844V115.344C112.517 115.125 112.593 114.94 112.744 114.789ZM121.336 114.789C121.487 114.633 121.672 114.555 121.891 114.555C122.11 114.555 122.297 114.633 122.453 114.789C122.604 114.94 122.68 115.125 122.68 115.344V125.203C122.68 125.422 122.604 125.609 122.453 125.766C122.297 125.922 122.11 126 121.891 126C121.672 126 121.487 125.922 121.336 125.766C121.18 125.609 121.102 125.422 121.102 125.203V115.344C121.102 115.125 121.18 114.94 121.336 114.789ZM126.695 118.5C127.377 117.964 128.143 117.695 128.992 117.695C130.06 117.695 130.971 118.099 131.726 118.906C132.487 119.719 132.867 120.698 132.867 121.844V125.203C132.867 125.422 132.789 125.609 132.632 125.766C132.481 125.922 132.297 126 132.078 126C131.859 126 131.672 125.922 131.515 125.766C131.359 125.609 131.281 125.422 131.281 125.203V121.844C131.281 121.135 131.057 120.531 130.609 120.031C130.161 119.526 129.622 119.273 128.992 119.273C128.362 119.273 127.823 119.523 127.375 120.023C126.922 120.529 126.695 121.135 126.695 121.844V125.203C126.695 125.422 126.619 125.609 126.468 125.766C126.312 125.922 126.125 126 125.906 126C125.687 126 125.502 125.922 125.351 125.766C125.195 125.609 125.117 125.422 125.117 125.203V118.484C125.117 118.266 125.195 118.078 125.351 117.922C125.502 117.771 125.687 117.695 125.906 117.695C126.125 117.695 126.312 117.771 126.468 117.922C126.619 118.078 126.695 118.266 126.695 118.484V118.5ZM139.46 119.273H136.882V121.844C136.882 122.552 137.134 123.159 137.64 123.664C138.14 124.164 138.746 124.414 139.46 124.414C139.674 124.414 139.858 124.492 140.015 124.648C140.171 124.805 140.249 124.99 140.249 125.203C140.249 125.422 140.171 125.609 140.015 125.766C139.858 125.922 139.674 126 139.46 126C138.314 126 137.335 125.594 136.523 124.781C135.71 123.969 135.304 122.99 135.304 121.844V115.117C135.304 114.904 135.382 114.719 135.538 114.562C135.689 114.406 135.874 114.328 136.093 114.328C136.312 114.328 136.499 114.406 136.655 114.562C136.806 114.719 136.882 114.904 136.882 115.117V117.695H139.46C139.674 117.695 139.858 117.771 140.015 117.922C140.171 118.078 140.249 118.266 140.249 118.484C140.249 118.703 140.171 118.888 140.015 119.039C139.858 119.195 139.674 119.273 139.46 119.273ZM149.397 120.352C149.397 120.357 149.397 120.359 149.397 120.359V120.367C149.48 120.565 149.478 120.766 149.389 120.969C149.306 121.172 149.163 121.312 148.959 121.391L144.538 123.164C144.444 123.201 144.347 123.219 144.248 123.219C143.889 123.219 143.644 123.052 143.514 122.719C143.431 122.521 143.433 122.32 143.522 122.117C143.605 121.914 143.748 121.773 143.952 121.695L147.538 120.258C147.017 119.602 146.345 119.273 145.522 119.273C144.808 119.273 144.202 119.526 143.702 120.031C143.196 120.531 142.944 121.135 142.944 121.844C142.944 122.552 143.196 123.159 143.702 123.664C144.202 124.164 144.808 124.414 145.522 124.414C146.355 124.414 147.03 124.083 147.545 123.422C147.681 123.25 147.858 123.151 148.077 123.125C148.29 123.099 148.483 123.154 148.655 123.289C148.827 123.419 148.928 123.594 148.959 123.812C148.985 124.031 148.931 124.227 148.795 124.398C147.962 125.466 146.871 126 145.522 126C144.376 126 143.397 125.594 142.584 124.781C141.772 123.969 141.366 122.99 141.366 121.844C141.366 120.698 141.772 119.719 142.584 118.906C143.397 118.099 144.376 117.695 145.522 117.695C146.371 117.695 147.152 117.938 147.866 118.422C148.579 118.911 149.09 119.555 149.397 120.352ZM152.162 118.898C152.974 118.091 153.954 117.688 155.099 117.688C156.24 117.688 157.217 118.091 158.029 118.898C158.842 119.711 159.248 120.69 159.248 121.836V125.195C159.248 126.341 158.842 127.32 158.029 128.133C157.217 128.945 156.24 129.352 155.099 129.352C153.964 129.352 152.99 128.953 152.178 128.156C152.021 128.005 151.943 127.82 151.943 127.602C151.943 127.383 152.019 127.195 152.17 127.039C152.326 126.883 152.513 126.805 152.732 126.805C152.951 126.799 153.136 126.875 153.287 127.031C153.792 127.526 154.396 127.773 155.099 127.773C155.808 127.773 156.412 127.521 156.912 127.016C157.417 126.516 157.67 125.909 157.67 125.195V121.836C157.67 121.128 157.417 120.523 156.912 120.023C156.412 119.518 155.808 119.266 155.099 119.266C154.386 119.266 153.779 119.518 153.279 120.023C152.774 120.523 152.521 121.128 152.521 121.836C152.521 122.544 152.774 123.151 153.279 123.656C153.779 124.156 154.386 124.406 155.099 124.406C155.474 124.406 155.829 124.331 156.162 124.18C156.365 124.086 156.568 124.078 156.771 124.156C156.974 124.229 157.123 124.365 157.217 124.562C157.305 124.766 157.31 124.969 157.232 125.172C157.159 125.375 157.024 125.523 156.826 125.617C156.279 125.867 155.704 125.992 155.099 125.992C153.954 125.992 152.974 125.586 152.162 124.773C151.349 123.961 150.943 122.982 150.943 121.836C150.943 120.69 151.349 119.711 152.162 118.898ZM165.325 117.695C165.549 117.695 165.771 117.716 165.989 117.758C166.203 117.794 166.372 117.904 166.497 118.086C166.622 118.268 166.664 118.466 166.622 118.68C166.581 118.893 166.471 119.062 166.294 119.188C166.112 119.312 165.914 119.354 165.7 119.312C165.575 119.286 165.45 119.273 165.325 119.273C164.695 119.273 164.156 119.526 163.708 120.031C163.26 120.531 163.034 121.135 163.028 121.844V125.211C163.028 125.43 162.953 125.615 162.802 125.766C162.646 125.922 162.458 126 162.239 126C162.021 126 161.836 125.922 161.685 125.766C161.528 125.615 161.45 125.43 161.45 125.211V118.484C161.45 118.266 161.528 118.081 161.685 117.93C161.836 117.773 162.021 117.695 162.239 117.695C162.458 117.695 162.646 117.773 162.802 117.93C162.953 118.081 163.028 118.266 163.028 118.484V118.5C163.711 117.964 164.476 117.695 165.325 117.695ZM168.583 117.922C168.734 117.771 168.918 117.695 169.137 117.695C169.356 117.695 169.543 117.771 169.7 117.922C169.851 118.078 169.926 118.266 169.926 118.484V125.203C169.926 125.422 169.851 125.609 169.7 125.766C169.543 125.922 169.356 126 169.137 126C168.918 126 168.734 125.922 168.583 125.766C168.426 125.609 168.348 125.422 168.348 125.203V118.484C168.348 118.266 168.426 118.078 168.583 117.922ZM168.504 115.898C168.348 115.747 168.27 115.562 168.27 115.344C168.27 115.125 168.348 114.938 168.504 114.781C168.661 114.63 168.848 114.555 169.067 114.555H169.184C169.403 114.555 169.59 114.63 169.747 114.781C169.903 114.938 169.981 115.125 169.981 115.344C169.981 115.562 169.903 115.747 169.747 115.898C169.59 116.055 169.403 116.133 169.184 116.133H169.067C168.848 116.133 168.661 116.055 168.504 115.898ZM176.738 119.273H174.16V121.844C174.16 122.552 174.413 123.159 174.918 123.664C175.418 124.164 176.025 124.414 176.738 124.414C176.952 124.414 177.137 124.492 177.293 124.648C177.449 124.805 177.527 124.99 177.527 125.203C177.527 125.422 177.449 125.609 177.293 125.766C177.137 125.922 176.952 126 176.738 126C175.592 126 174.613 125.594 173.801 124.781C172.988 123.969 172.582 122.99 172.582 121.844V115.117C172.582 114.904 172.66 114.719 172.816 114.562C172.967 114.406 173.152 114.328 173.371 114.328C173.59 114.328 173.777 114.406 173.933 114.562C174.084 114.719 174.16 114.904 174.16 115.117V117.695H176.738C176.952 117.695 177.137 117.771 177.293 117.922C177.449 118.078 177.527 118.266 177.527 118.484C177.527 118.703 177.449 118.888 177.293 119.039C177.137 119.195 176.952 119.273 176.738 119.273ZM186.784 118.477V125.195C186.784 126.341 186.404 127.32 185.644 128.133C184.889 128.945 183.977 129.352 182.909 129.352C182.264 129.352 181.657 129.19 181.089 128.867C180.521 128.544 180.058 128.096 179.698 127.523C179.584 127.341 179.55 127.143 179.597 126.93C179.644 126.716 179.761 126.552 179.948 126.438C180.131 126.318 180.329 126.281 180.542 126.328C180.756 126.38 180.92 126.497 181.034 126.68C181.493 127.409 182.118 127.773 182.909 127.773C183.54 127.773 184.079 127.521 184.527 127.016C184.974 126.516 185.198 125.911 185.198 125.203V125.18C184.516 125.721 183.753 125.992 182.909 125.992C181.842 125.992 180.928 125.586 180.167 124.773C179.412 123.961 179.034 122.982 179.034 121.836V118.477C179.034 118.258 179.113 118.07 179.269 117.914C179.42 117.763 179.605 117.688 179.823 117.688C180.042 117.688 180.23 117.763 180.386 117.914C180.537 118.07 180.613 118.258 180.613 118.477V121.836C180.613 122.544 180.836 123.151 181.284 123.656C181.738 124.156 182.279 124.406 182.909 124.406C183.54 124.406 184.079 124.156 184.527 123.656C184.974 123.151 185.198 122.544 185.198 121.836V118.477C185.198 118.258 185.277 118.07 185.433 117.914C185.589 117.763 185.777 117.688 185.995 117.688C186.214 117.688 186.399 117.763 186.55 117.914C186.706 118.07 186.784 118.258 186.784 118.477Z" fill="#3A3A3A"/>
</svg>
